<?xml version="1.0" standalone="no"?><!DOCTYPE svg PUBLIC "-//W3C//DTD SVG 1.1//EN" "http://www.w3.org/Graphics/SVG/1.1/DTD/svg11.dtd"><svg t="1621564422968" class="icon" viewBox="0 0 1024 1024" version="1.1" xmlns="http://www.w3.org/2000/svg" p-id="6228" xmlns:xlink="http://www.w3.org/1999/xlink" width="200" height="200"><defs><style type="text/css"></style></defs><path d="M485.506 479.076c-2.099 0-4.213 0.108-6.335 0.318l-316.325 31.364c-27.907 2.769-50.687 23.327-56.083 50.61s7.868 54.857 32.654 67.867l58.333 30.613L76.757 779.81c-11.926 11.826-18.626 27.866-18.626 44.586s6.7 32.763 18.626 44.586l79.081 78.401c12.419 12.319 28.697 18.471 44.972 18.471s32.553-6.151 44.972-18.471l120.993-119.955 30.878 57.837c11.171 20.916 32.986 33.557 56.198 33.557 4.059 0 8.158-0.385 12.251-1.182 27.522-5.348 48.262-27.939 51.051-55.609l31.635-313.618c1.898-18.822-4.823-37.497-18.309-50.868-11.984-11.877-28.194-18.469-44.97-18.469z m-31.643 376.682l-71.171-133.293-181.885 180.331-79.081-78.401 181.885-180.331-134.439-70.56 316.325-31.364-31.635 313.618z m62.027-576.272c17.561 0 31.803-14.114 31.803-31.525V89.671c0-17.41-14.244-31.525-31.803-31.525-17.561 0-31.803 14.114-31.803 31.525v158.288c0 17.41 14.243 31.526 31.803 31.526z m182.812 75.076c8.139 0 16.27-3.079 22.483-9.237l112.889-111.924c12.419-12.305 12.419-32.275 0-44.58-12.419-12.319-32.547-12.319-44.972 0L676.22 300.74c-12.428 12.31-12.428 32.275 0 44.586 6.207 6.16 14.346 9.237 22.483 9.237z m235.367 118.186H774.417c-17.566 0-31.803 14.114-31.803 31.533 0 17.41 14.237 31.525 31.803 31.525h159.652c17.566 0 31.803-14.114 31.803-31.525 0.001-17.418-14.237-31.533-31.803-31.533zM721.185 663.23c-12.419-12.319-32.547-12.319-44.966 0-12.428 12.31-12.428 32.275 0 44.586l112.882 111.919c6.213 6.159 14.352 9.237 22.49 9.237 8.131 0 16.27-3.079 22.483-9.237 12.419-12.305 12.419-32.275 0-44.58L721.185 663.231zM310.597 345.324c6.207 6.159 14.346 9.237 22.483 9.237s16.27-3.079 22.483-9.237c12.419-12.31 12.419-32.275 0-44.586L242.674 188.819c-12.419-12.319-32.547-12.319-44.966 0-12.419 12.305-12.419 32.275 0 44.58l112.889 111.924z" fill="" p-id="6229"></path></svg>