<?xml version="1.0" standalone="no"?><!DOCTYPE svg PUBLIC "-//W3C//DTD SVG 1.1//EN" "http://www.w3.org/Graphics/SVG/1.1/DTD/svg11.dtd"><svg t="1621564297343" class="icon" viewBox="0 0 1024 1024" version="1.1" xmlns="http://www.w3.org/2000/svg" p-id="1725" xmlns:xlink="http://www.w3.org/1999/xlink" width="200" height="200"><defs><style type="text/css"></style></defs><path d="M512 0C229.23008 0 0 229.23008 0 512s229.23008 512 512 512 512-229.23008 512-512S794.76992 0 512 0z m0 998.4C243.36896 998.4 25.6 780.63104 25.6 512 25.6 243.3664 243.36896 25.6 512 25.6s486.4 217.7664 486.4 486.4c0 268.63104-217.76896 486.4-486.4 486.4z" fill="" p-id="1726"></path><path d="M666.60096 485.21984c-70.68928 0-128 57.31072-128 128s57.31072 128 128 128 128-57.31072 128-128-57.31072-128-128-128z m61.58336 142.464l-47.08608 0.02048 0.02048 47.09376a14.4896 14.4896 0 1 1-28.98432 0.01024l-0.02048-47.08864-47.09376 0.02048a14.48704 14.48704 0 0 1-14.49472-14.48448 14.48192 14.48192 0 0 1 14.48448-14.49472l47.0912-0.02304-0.02048-47.09632a14.4896 14.4896 0 1 1 28.9792-0.00768l0.0256 47.0912 47.0912-0.02304a14.49472 14.49472 0 1 1 0.00768 28.98176zM449.84576 591.5648c20.46464 0 40.256-0.4736 59.0592-1.33632 5.04064-37.07904 23.28576-69.94944 49.87392-93.70624-32.1408 3.03616-69.2992 4.77696-108.93568 4.77696-121.75104 0-220.44672-16.36352-220.44672-36.53888v90.26048c0.00256 20.18048 98.70336 36.544 220.44928 36.544zM449.84576 446.14656c121.76384 0 220.46464-16.36352 220.46464-36.55168v-90.26304c-0.01024-20.18048-98.71616-36.55168-220.46464-36.55168-121.7408 0-220.43136 16.37376-220.44672 36.55168v90.26304c0 20.19072 98.7008 36.55168 220.44672 36.55168zM508.2496 626.80832c-18.60608 0.84736-38.17472 1.30816-58.40384 1.30816-121.75104 0-220.44672-16.36864-220.44672-36.54912v90.26304c0 20.19072 98.7008 36.55168 220.44672 36.55168 35.10528 0 68.27008-1.36704 97.73056-3.78624-21.60128-23.67232-35.90144-54.12096-39.32672-87.78752z" fill="" p-id="1727"></path></svg>