<?xml version="1.0" standalone="no"?><!DOCTYPE svg PUBLIC "-//W3C//DTD SVG 1.1//EN" "http://www.w3.org/Graphics/SVG/1.1/DTD/svg11.dtd"><svg t="1621564384112" class="icon" viewBox="0 0 1024 1024" version="1.1" xmlns="http://www.w3.org/2000/svg" p-id="4638" xmlns:xlink="http://www.w3.org/1999/xlink" width="200" height="200"><defs><style type="text/css"></style></defs><path d="M943.888428 590.353532l-2.376117-0.967024c9.618055-52.40658 9.66922-106.883309-0.769526-160.941506l79.500659-76.9383-35.360346-85.469604-113.095801-4.282536-0.995677 0.384763c-30.770817-44.310182-68.893067-81.740676-112.100124-111.274316l-0.163729-113.400746-85.254709-35.416628-83.20605 79.285764c-51.325969-9.448186-104.643292-9.804297-157.570735-0.1361L349.953324 3.042289l-83.540671 34.698267-1.436722 112.654756c-45.084824 31.026644-83.234703 69.616544-113.208365 113.429399l-112.626104 0.163729-36.050054 87.183641 78.843696 81.718163c-9.448186 51.133587-10.002818 104.229876-0.610914 156.992567l-3.864004 1.601474L4.363378 673.089885l35.303041 85.498256 107.73777-2.817162 0.804319-0.328481c30.685883 45.883003 69.140707 84.637656 112.902396 115.109668l-1.550309 3.756557 7.514137 110.527302 85.304851 35.387975 82.216513-75.303057 1.103124-2.539846c51.382251 8.949836 104.755856 8.80862 157.739581-1.357927l79.116919 79.449493 85.304851-35.387975 3.151783-114.696252c43.976584-30.664394 81.164554-68.64952 110.554932-111.494327l0.49835 0.221034 112.711038-0.384763 36.022425-87.239923L943.888428 590.353532zM860.738659 525.986549c-0.277316 7.100722-0.554632 14.20042-1.272993 21.323655-0.271176 2.653433-0.163729 5.3918-0.49835 8.011464l-0.605797-0.248663c-3.812839 30.443359-11.325953 60.915371-23.648606 90.64037-11.93175 29.03529-27.676339 55.280024-45.855374 79.037101l0.056282 0.028653c-0.169869 0.248663-0.38988 0.413416-0.610914 0.662079-56.682977 73.757864-139.946332 120.886231-229.948159 133.066645l0.051165 0.221034c-0.825808 0.113587-1.708921 0.056282-2.539846 0.169869-26.574239 3.422959-53.588499 3.835352-80.71737 0.910743-1.87879-0.141216-3.812839-0.056282-5.635347-0.277316l0.163729-0.469698c-30.720675-3.756557-61.492516-11.354606-91.494831-23.813359-30.27963-12.571317-57.628512-29.170366-82.154092-48.536436l-0.553609 1.266853c-24.198122-18.891256-45.968961-41.294498-64.808028-66.544579l1.409093-0.582261c-36.050054-48.565089-59.144028-105.746416-66.685795-165.858492l-1.272993 0.525979c-3.564175-29.646204-3.400446-59.313897 0.413416-88.320535l1.080611 0.418532c3.836375-30.194696 11.298324-60.418045 23.478737-89.922009 12.101619-29.255301 27.959795-55.664787 46.352701-79.585593l-0.854461-0.36225c2.376117-3.094478 5.250584-5.799076 7.706519-8.81476 1.577938-1.928932 3.28686-3.727904 4.922103-5.635347 15.438621-17.951861 32.17991-34.913161 51.240011-49.668213l0.38988 0.854461c95.79988-73.837682 227.073692-96.020914 346.800517-46.324048 118.402667 49.142234 195.147562 156.054195 211.940017 274.620591l0.718361-0.277316c0.442068 3.094478 0.333598 6.217608 0.662079 9.284457 0.774643 6.54609 1.051959 13.176091 1.436722 19.750833C861.124446 503.084956 861.237009 514.524496 860.738659 525.986549zM700.383508 634.619712l-0.615007-142.484132c0-91.444689-80.19446-165.562756-175.760003-165.562756s-175.812191 74.118068-175.812191 165.562756l0.60989 142.484132c-13.636578 0-24.678052 10.609639-24.678052 23.661909s11.041474 23.661909 24.678052 23.661909l351.577311 0c13.636578 0 24.730241-10.609639 24.730241-23.661909S714.020086 634.619712 700.383508 634.619712zM623.847367 591.541591c0 9.56689-1.323135 17.096377-3.511987 25.90295L428.646594 617.444541c-2.241041-8.806573-3.559059-16.33606-3.559059-25.90295l-0.411369-93.52814c0-58.850339 45.141106-106.555851 99.484805-106.555851 54.348816 0 100.349499 47.704488 100.349499 106.555851L623.847367 591.541591z" fill="" p-id="4639"></path></svg>