<svg width="24" height="24" viewBox="0 0 48 48" fill="currentColor"><path fill-rule="evenodd" clip-rule="evenodd" d="M4 15a1 1 0 001 1h2a1 1 0 001-1V8h7a1 1 0 001-1V5a1 1 0 00-1-1H6a2 2 0 00-2 2v9zm4 18a1 1 0 00-1-1H5a1 1 0 00-1 1v9a2 2 0 002 2h9a1 1 0 001-1v-2a1 1 0 00-1-1H8v-7zm35-17a1 1 0 001-1V6a2 2 0 00-2-2h-9a1 1 0 00-1 1v2a1 1 0 001 1h7v7a1 1 0 001 1h2zm1 17a1 1 0 00-1-1h-2a1 1 0 00-1 1v7h-7a1 1 0 00-1 1v2a1 1 0 001 1h9a2 2 0 002-2v-9zM32.835 11h-6.108c-6.512 0-11.882 4.804-12.636 11h-1.992c-.382 0-.52.046-.66.134a.855.855 0 00-.325.378c-.074.162-.114.324-.114.77v1.436c0 .446.04.608.114.77.075.163.185.291.324.378.14.088.279.134.66.134h2.157c1.179 5.706 6.315 10 12.472 10h6.108c.405 0 .552-.041.7-.12a.819.819 0 00.344-.337c.079-.145.121-.29.121-.688V31h.901c.382 0 .52-.046.66-.134a.855.855 0 00.325-.378c.074-.162.114-.324.114-.77v-1.436c0-.446-.04-.608-.114-.77a.855.855 0 00-.325-.378c-.14-.088-.278-.134-.66-.134H34v-7h.901c.382 0 .52-.046.66-.134a.855.855 0 00.325-.378c.074-.162.114-.324.114-.77v-1.436c0-.446-.04-.608-.114-.77a.855.855 0 00-.325-.378c-.14-.088-.278-.134-.66-.134H34v-3.855c0-.398-.042-.543-.121-.688a.819.819 0 00-.344-.338c-.148-.078-.295-.119-.7-.119zm-2.744 3.571h-3.637c-5.02 0-9.09 3.998-9.09 8.929s4.07 8.929 9.09 8.929h3.637V14.57z" fill="currentColor"/></svg>