<?xml version="1.0" standalone="no"?><!DOCTYPE svg PUBLIC "-//W3C//DTD SVG 1.1//EN" "http://www.w3.org/Graphics/SVG/1.1/DTD/svg11.dtd"><svg t="1621564387075" class="icon" viewBox="0 0 1024 1024" version="1.1" xmlns="http://www.w3.org/2000/svg" p-id="4770" xmlns:xlink="http://www.w3.org/1999/xlink" width="200" height="200"><defs><style type="text/css"></style></defs><path d="M0 651.84768c0 92.3904 69.16608 169.05216 159.9744 183.84896l32.0256 2.56h316.78976l6.4256-0.88576 316.79488 0.88576 32.02048-2.56c90.8032-14.7968 159.96928-91.45856 159.96928-183.84896 0-81.1776-53.43232-150.25152-128.04608-175.85152-2.69824-160.768-137.77408-290.25792-303.94368-290.25792-119.85408 0-223.50848 67.3536-273.03424 165.23776-23.40864-25.13408-57.2928-40.96-94.99648-40.96-70.70208 0-128 55.66976-128 124.27264 0 17.92 3.91168 34.95936 10.89024 50.36032C43.56608 515.0976 0 578.53952 0 651.84768z m159.9744-150.8096l-15.36-40.26368a57.82528 57.82528 0 0 1-5.4016-24.52992c0-33.41824 33.792-83.08736 86.8096-83.08736 18.2016 0 39.51616 9.07776 51.712 21.97504l50.03776 34.76992 42.54208-56.73984c48.17408-71.81824 129.44384-121.20064 221.09184-121.20064 129.2544 0 256.83968 123.20256 258.88256 246.36416v43.65824l45.00992 12.05248c50.7392 17.08032 84.76672 63.0272 84.76672 114.31424 0 59.43808-60.88704 133.9136-122.22976 143.68768h-342.71744v0.36864h-6.4256v-0.36864H194.23744l-21.22752-1.67424c-61.34784-9.7792-129.11616-82.52928-129.11616-141.97248 0-46.48448 39.60832-120.96 116.08064-147.3536z" fill="" p-id="4771"></path><path d="M256 654.2848h38.51776l28.97408-40.25856h72.19712l-1.00864 40.25856h35.53792l2.53952-182.1696h-41.6256L256 654.2848z m140.43648-70.5792H341.88288l56.91904-73.31328-2.36544 73.31328z m266.112-91.52c-3.21024-7.16288-8.36096-12.30336-15.47776-15.4112-7.11168-3.10272-17.24928-4.6592-30.41792-4.6592h-74.0608l-70.28224 182.1696h37.51936l26.78784-69.45792h23.98208c16.15872 0 27.24864-0.4096 33.29024-1.24928 10.34752-1.39776 18.74944-3.46112 25.1904-6.15936 6.43072-2.67776 12.69248-6.64064 18.80064-11.84768 6.08768-5.2224 11.6992-12.18048 16.78848-20.87936 5.09952-8.69888 8.448-17.64352 10.07104-26.83904 1.75104-9.94816 1.02912-18.5088-2.19136-25.66656z m-35.87072 28.76416c-1.16224 6.54848-4.1216 12.54912-8.89856 18.01728-4.77184 5.46816-10.7008 9.45152-17.77152 11.9296-7.06048 2.48832-20.50048 3.73248-40.28928 3.73248h-11.56096l20.33152-52.56192h26.83904c12.18048 0 19.91168 0.63488 23.2192 1.93024 3.28192 1.28 5.6576 3.31776 7.10144 6.144 1.44896 2.82112 1.792 6.4256 1.02912 10.80832z m103.92064-48.83456l-70.28224 182.1696h37.51936L768 472.1152h-37.4016z" fill="" p-id="4772"></path></svg>