<?xml version="1.0" standalone="no"?><!DOCTYPE svg PUBLIC "-//W3C//DTD SVG 1.1//EN" "http://www.w3.org/Graphics/SVG/1.1/DTD/svg11.dtd"><svg t="1621564390735" class="icon" viewBox="0 0 1024 1024" version="1.1" xmlns="http://www.w3.org/2000/svg" p-id="4903" xmlns:xlink="http://www.w3.org/1999/xlink" width="200" height="200"><defs><style type="text/css"></style></defs><path d="M138.24 163.84a25.6 25.6 0 0 0-25.6 25.6v650.24c0 11.31008 11.72992 20.48 23.04 20.48h10.24c11.31008 0 17.92-9.16992 17.92-20.48V189.44a25.6 25.6 0 0 0-25.6-25.6z" fill="" p-id="4904"></path><path d="M888.32 808.96h-752.64c-11.31008 0-23.04 9.16992-23.04 20.48v10.24c0 11.31008 11.72992 20.48 23.04 20.48h752.64c11.31008 0 17.92-9.16992 17.92-20.48v-10.24c0-11.31008-6.60992-20.48-17.92-20.48zM305.39264 603.66336a20.47488 20.47488 0 1 1-34.72384-21.72416l74.17856-115.52256a20.48 20.48 0 0 1 28.22656-6.49728 20.47488 20.47488 0 0 1 6.49728 28.22144l-74.17856 115.52256zM713.26208 587.26912a20.48512 20.48512 0 0 1-39.26528 11.66848l-97.01376-310.68672a20.48 20.48 0 0 1 39.26528-11.66336l97.01376 310.6816z" fill="" p-id="4905"></path><path d="M480.48128 699.97056a20.48 20.48 0 0 1-38.56896-13.78304l132.33152-413.35296a20.48 20.48 0 0 1 38.56896 13.78816l-132.33152 413.34784z" fill="" p-id="4906"></path><path d="M479.59552 682.368a20.48 20.48 0 0 1-10.14272 27.12576 20.49024 20.49024 0 0 1-27.13088-10.14784L344.72448 484.992a20.48 20.48 0 0 1 37.2736-16.9728l97.59744 214.3488zM302.08 593.92a20.48 20.48 0 0 1-20.48 20.48h-46.08a20.48 20.48 0 0 1 0-40.96h46.08a20.48 20.48 0 0 1 20.48 20.48zM860.16 593.92a20.48 20.48 0 0 1-20.48 20.48h-148.48a20.48 20.48 0 0 1 0-40.96h148.48a20.48 20.48 0 0 1 20.48 20.48z" fill="" p-id="4907"></path><path d="M839.68 591.36m-46.08 0a46.08 46.08 0 1 0 92.16 0 46.08 46.08 0 1 0-92.16 0Z" fill="" p-id="4908"></path></svg>