<?xml version="1.0" standalone="no"?><!DOCTYPE svg PUBLIC "-//W3C//DTD SVG 1.1//EN" "http://www.w3.org/Graphics/SVG/1.1/DTD/svg11.dtd"><svg t="1621564395998" class="icon" viewBox="0 0 1024 1024" version="1.1" xmlns="http://www.w3.org/2000/svg" p-id="5171" xmlns:xlink="http://www.w3.org/1999/xlink" width="200" height="200"><defs><style type="text/css"></style></defs><path d="M450.56 245.76c0-28.27776-22.92224-51.2-51.2-51.2H174.08c-28.27776 0-51.2 22.92224-51.2 51.2v225.28c0 28.27776 22.92224 51.2 51.2 51.2h225.28c28.27776 0 51.2-22.92224 51.2-51.2V245.76z m-46.08 188.50816A41.89184 41.89184 0 0 1 362.58816 476.16H215.97184A41.89184 41.89184 0 0 1 174.08 434.26816V287.65184A41.89184 41.89184 0 0 1 215.97184 245.76h146.62144A41.89184 41.89184 0 0 1 404.48 287.65184v146.61632zM450.56 624.93184C450.56 596.64896 427.63776 573.44 399.36 573.44H174.08c-28.27776 0-51.2 23.20896-51.2 51.49184v225.28c0 28.26752 22.92224 50.90816 51.2 50.90816h225.28c28.27776 0 51.2-22.64064 51.2-50.90816v-225.28z m-46.08 188.50816c0 23.13216-18.75456 41.6-41.89184 41.6H215.97184c-23.13728 0-41.89184-18.46784-41.89184-41.6v-146.62144c0-23.1424 18.75456-42.17856 41.89184-42.17856h146.62144c23.13728 0 41.89184 19.04128 41.89184 42.17856v146.62144zM727.12192 137.58976c-19.99872-19.9936-52.41856-19.9936-72.41216 0L495.4112 296.8832c-19.9936 19.99872-19.9936 52.41344 0 72.41216l159.29856 159.29856c19.98848 19.98848 52.40832 19.98848 72.41216 0l159.28832-159.29856c19.99872-19.99872 19.99872-52.41344 0-72.41216l-159.28832-159.29344z m100.7104 165.87776a41.88672 41.88672 0 0 1 0 59.2384l-103.68 103.68a41.88672 41.88672 0 0 1-59.2384 0l-103.66976-103.68a41.88672 41.88672 0 0 1 0-59.2384l103.66976-103.68a41.88672 41.88672 0 0 1 59.2384 0l103.68 103.68zM829.44 624.93184c0-28.27776-22.92736-51.49184-51.2-51.49184h-225.28c-28.27264 0-51.2 23.20896-51.2 51.49184v225.28c0 28.26752 22.92736 50.90816 51.2 50.90816h225.28c28.27264 0 51.2-22.64064 51.2-50.90816v-225.28z m-46.08 188.50816c0 23.13216-19.04128 41.6-42.17856 41.6h-146.62144a41.40032 41.40032 0 0 1-41.6-41.6v-146.62144c0-23.1424 18.46784-42.17856 41.6-42.17856h146.62144c23.1424 0 42.17856 19.04128 42.17856 42.17856v146.62144z" fill="" p-id="5172"></path></svg>