<?xml version="1.0" standalone="no"?><!DOCTYPE svg PUBLIC "-//W3C//DTD SVG 1.1//EN" "http://www.w3.org/Graphics/SVG/1.1/DTD/svg11.dtd"><svg t="1621563615955" class="icon" viewBox="0 0 1024 1024" version="1.1" xmlns="http://www.w3.org/2000/svg" p-id="3442" xmlns:xlink="http://www.w3.org/1999/xlink" width="200" height="200"><defs><style type="text/css"></style></defs><path d="M342.4 397.44s136.32-81.28 136.32-83.52c5.76 5.12-140.16-85.12-140.16-85.12L199.36 314.24l143.04 83.2zM351.36 427.2v167.04l144.32-83.84v-167.68c-0.32 0-144.32 82.24-144.32 84.48zM321.6 427.2c0-1.92-144.32-84.16-144.32-84.16v167.68l144.32 83.84v-167.36zM321.6 627.52c0-1.92-144.32-84.16-144.32-84.16v167.68l144.32 83.84v-167.36zM495.36 729.6c0-1.92-144.32-84.16-144.32-84.16v167.68l144.32 83.84V729.6zM684.48 397.76l143.04-83.52-139.52-85.12s-145.92 90.24-140.16 85.12c0 1.92 136.64 83.2 136.64 83.52zM675.52 427.2c0-1.92-144.32-84.16-144.32-84.16v167.68l144.32 83.84v-167.36zM704.96 427.2v167.04l144.32-83.84v-167.68s-144.32 82.24-144.32 84.48zM704.96 627.52v167.04l144.32-83.84v-167.68c0 0.32-144.32 82.56-144.32 84.48zM531.2 729.6v167.04l144.32-83.84v-167.68c0 0.32-144.32 82.24-144.32 84.48zM512.32 128l140.16 84.16-139.2 85.12-140.16-85.12zM512.32 532.8l140.16 84.48-139.2 84.8-140.16-85.12z" p-id="3443"></path></svg>