<?xml version="1.0" standalone="no"?><!DOCTYPE svg PUBLIC "-//W3C//DTD SVG 1.1//EN" "http://www.w3.org/Graphics/SVG/1.1/DTD/svg11.dtd"><svg t="1621564359898" class="icon" viewBox="0 0 1024 1024" version="1.1" xmlns="http://www.w3.org/2000/svg" p-id="3710" xmlns:xlink="http://www.w3.org/1999/xlink" width="200" height="200"><defs><style type="text/css"></style></defs><path d="M105.472 347.875556l-39.082667 46.904888 39.082667-62.549333L480.711111 566.784c16.696889 9.756444 45.824 9.756444 62.549333 0l375.239112-234.552889 39.082666 62.549333-39.082666-46.904888 39.082666-46.904889-39.082666 62.549333-375.239112-234.524444c-16.696889-9.784889-45.852444-9.756444-62.549333 0L105.472 363.52l-39.082667-62.549333 39.082667 46.904889z m-39.082667 46.904888c-31.601778-27.192889-31.658667-66.56 0-93.809777l375.239111-242.346667c40.049778-21.020444 100.579556-21.077333 140.714667 0l375.239111 242.346667c31.601778 27.221333 31.658667 66.56 0 93.809777l-375.239111 242.346667c-40.049778 21.020444-100.579556 21.077333-140.714667 0l-375.239111-242.346667z m-7.822222 70.371556c-23.352889 29.582222-20.906667 65.450667 7.822222 93.809778l375.239111 242.346666c40.163556 20.935111 100.636444 20.878222 140.714667 0l375.239111-242.346666c28.757333-28.416 31.118222-64.256 7.822222-93.809778-3.072 2.673778-5.461333 5.290667-7.822222 7.822222l-375.239111 242.346667c-40.078222 20.963556-100.551111 20.992-140.714667 0l-375.239111-242.346667c-2.360889-2.56-4.750222-5.176889-7.822222-7.822222z m0 164.181333c-23.352889 29.582222-20.906667 65.450667 7.822222 93.809778l375.239111 242.346667c40.163556 20.935111 100.636444 20.878222 140.714667 0l375.239111-242.346667c28.757333-28.387556 31.118222-64.256 7.822222-93.809778-3.072 2.645333-5.461333 5.262222-7.822222 7.793778L582.343111 879.502222c-40.078222 20.935111-100.551111 20.963556-140.714667 0L66.389333 637.127111c-2.360889-2.531556-4.750222-5.148444-7.822222-7.793778z" fill="" p-id="3711"></path></svg>