<?xml version="1.0" standalone="no"?><!DOCTYPE svg PUBLIC "-//W3C//DTD SVG 1.1//EN" "http://www.w3.org/Graphics/SVG/1.1/DTD/svg11.dtd"><svg t="1621564331563" class="icon" viewBox="0 0 1024 1024" version="1.1" xmlns="http://www.w3.org/2000/svg" p-id="2785" xmlns:xlink="http://www.w3.org/1999/xlink" width="200" height="200"><defs><style type="text/css"></style></defs><path d="M701.639111 56.888889H231.338667c-75.093333 0-136.533333 61.44-136.533334 136.533333v637.155556c0 75.093333 61.44 136.533333 136.533334 136.533333h561.294222a136.931556 136.931556 0 0 0 136.561778-136.533333V284.444444l-227.555556-227.555555zM853.333333 830.577778a60.871111 60.871111 0 0 1-60.700444 60.672H231.338667A60.842667 60.842667 0 0 1 170.666667 830.577778V193.422222a60.871111 60.871111 0 0 1 60.672-60.672h364.117333V329.955556a60.871111 60.871111 0 0 0 60.672 60.672H853.333333V830.577778z m-166.855111-515.783111a15.189333 15.189333 0 0 1-15.160889-15.189334V132.750222l182.016 182.044445h-166.855111z" fill="" p-id="2786"></path><path d="M580.238222 671.288889h-257.877333c-21.219556 0-37.916444 16.696889-37.916445 37.916444s16.696889 37.916444 37.916445 37.916445h257.877333c21.248 0 37.944889-16.696889 37.944889-37.916445s-16.696889-37.916444-37.944889-37.916444zM284.444444 542.350222a37.546667 37.546667 0 0 0 37.916445 37.916445h379.278222c21.219556 0 37.916444-16.696889 37.916445-37.916445s-16.696889-37.916444-37.916445-37.916444H322.360889A37.546667 37.546667 0 0 0 284.444444 542.350222z" fill="" p-id="2787"></path></svg>