<?xml version="1.0" standalone="no"?><!DOCTYPE svg PUBLIC "-//W3C//DTD SVG 1.1//EN" "http://www.w3.org/Graphics/SVG/1.1/DTD/svg11.dtd"><svg t="1621564429839" class="icon" viewBox="0 0 1024 1024" version="1.1" xmlns="http://www.w3.org/2000/svg" p-id="6626" xmlns:xlink="http://www.w3.org/1999/xlink" width="200" height="200"><defs><style type="text/css"></style></defs><path d="M302.545455 116.363636h409.6a27.927273 27.927273 0 0 0 0-55.854545h-409.6a27.927273 27.927273 0 1 0 0 55.854545z m-93.09091 102.4h595.781819a27.927273 27.927273 0 0 0 0-55.854545h-595.781819a27.927273 27.927273 0 1 0 0 55.854545z m670.254546 55.854546h-735.418182c-51.414109 0-93.090909 41.686109-93.090909 93.090909v512c0 51.414109 41.6768 93.090909 93.090909 93.090909h735.418182c51.414109 0 93.090909-41.6768 93.090909-93.090909v-512c0-51.4048-41.6768-93.090909-93.090909-93.090909z m37.236364 594.3296a46.545455 46.545455 0 0 1-46.545455 46.545454h-716.8a46.545455 46.545455 0 0 1-46.545455-46.545454V386.327273a46.545455 46.545455 0 0 1 46.545455-46.545455h716.8a46.545455 46.545455 0 0 1 46.545455 46.545455v482.620509zM602.177164 522.621673l-68.9152-64.474764a4.747636 4.747636 0 0 0-1.405673-1.349818 9.234618 9.234618 0 0 0-1.396364-1.163636 11.776 11.776 0 0 0-3.006836-1.7408c-0.996073-0.577164-1.796655-0.772655-2.802036-1.163637-0.605091-0.195491-1.200873-0.390982-2.010764-0.577163-0.390982 0-0.586473-0.195491-0.996073-0.195491-2.196945-0.577164-4.012218-0.577164-5.008291-0.577164h-0.400291c-0.996073 0-3.006836 0-5.408581 0.577164-0.400291 0-0.595782 0.195491-0.996073 0.195491-0.400291 0.195491-1.005382 0.195491-1.405673 0.390981a15.555491 15.555491 0 0 0-3.006836 1.163637c-0.195491 0-0.195491 0.195491-0.400291 0.195491 0 0.195491-0.195491 0.195491-0.195491 0.195491-1.200873 0.577164-2.606545 1.349818-3.611927 2.122472l-0.195491 0.195491a7.000436 7.000436 0 0 0-2.401746 1.7408l-67.314036 64.660946c-4.803491 4.449745-7.614836 10.426182-7.614836 16.7936-0.195491 6.376727 2.606545 12.744145 7.214545 17.370763s10.826473 7.335564 17.435927 7.335564 13.218909-2.513455 18.031709-7.149382l24.641164-23.738182v266.267928c0 13.312 11.226764 24.129164 25.041455 24.129163s25.041455-10.817164 25.041454-24.129163V532.452073l26.046836 24.520145c4.608 4.626618 10.817164 6.953891 17.640728 6.953891 6.795636 0 13.014109-2.513455 17.836218-7.149382l0.186182-0.195491c9.616291-9.644218 9.4208-24.510836-0.400291-33.773381l-0.223418-0.186182z" fill="" p-id="6627"></path></svg>