<?xml version="1.0" standalone="no"?><!DOCTYPE svg PUBLIC "-//W3C//DTD SVG 1.1//EN" "http://www.w3.org/Graphics/SVG/1.1/DTD/svg11.dtd"><svg t="1621564355834" class="icon" viewBox="0 0 1024 1024" version="1.1" xmlns="http://www.w3.org/2000/svg" p-id="3578" xmlns:xlink="http://www.w3.org/1999/xlink" width="200" height="200"><defs><style type="text/css"></style></defs><path d="M360.305778 474.112a37.944889 37.944889 0 0 1 75.861333-0.028444V701.610667a37.944889 37.944889 0 0 1-75.861333 0.028444V474.112zM56.888889 280.661333c0-23.04 18.688-41.728 41.784889-41.728h826.652444a41.756444 41.756444 0 0 1 0 83.456H98.673778A41.813333 41.813333 0 0 1 56.888889 280.661333z m530.972444 193.450667a37.944889 37.944889 0 0 1 75.861334-0.028444V701.610667a37.944889 37.944889 0 0 1-75.861334 0.028444V474.112zM663.694222 238.933333V147.968a15.189333 15.189333 0 0 0-15.132444-15.217778h-273.152a15.217778 15.217778 0 0 0-15.160889 15.217778V238.933333H284.444444V117.504A60.586667 60.586667 0 0 1 345.031111 56.888889h333.824C712.391111 56.888889 739.555556 84.053333 739.555556 117.504V238.933333h-75.861334zM208.611556 967.111111a60.672 60.672 0 0 1-60.672-60.643555V322.360889h75.861333v553.671111a15.189333 15.189333 0 0 0 15.132444 15.217778h546.190223c8.362667 0 15.132444-6.826667 15.132444-15.189334V322.360889h75.861333v584.078222a60.672 60.672 0 0 1-60.672 60.643556H208.611556z" fill="" p-id="3579"></path></svg>