<?xml version="1.0" standalone="no"?><!DOCTYPE svg PUBLIC "-//W3C//DTD SVG 1.1//EN" "http://www.w3.org/Graphics/SVG/1.1/DTD/svg11.dtd"><svg t="1621564374949" class="icon" viewBox="0 0 1024 1024" version="1.1" xmlns="http://www.w3.org/2000/svg" p-id="4240" xmlns:xlink="http://www.w3.org/1999/xlink" width="200" height="200"><defs><style type="text/css"></style></defs><path d="M921.698544 549.048801l-566.082756 0c-20.748556 0-37.539988-16.790408-37.539988-37.539988 0-20.733207 16.791431-37.542035 37.539988-37.542035l566.082756 0c20.756743 0 37.546128 16.807804 37.546128 37.542035C959.244672 532.258393 942.455287 549.048801 921.698544 549.048801L921.698544 549.048801zM921.698544 248.724805l-566.082756 0c-20.748556 0-37.539988-16.808828-37.539988-37.541011 0-20.73116 16.791431-37.539988 37.539988-37.539988l566.082756 0c20.756743 0 37.546128 16.808828 37.546128 37.539988C959.244672 231.915977 942.455287 248.724805 921.698544 248.724805L921.698544 248.724805zM136.509559 886.907669c-41.464367 0-75.086116-33.616632-75.086116-75.075883 0-41.46539 33.621748-75.079976 75.086116-75.079976 41.460274 0 75.080999 33.615609 75.080999 75.079976C211.590558 853.29206 177.969832 886.907669 136.509559 886.907669L136.509559 886.907669zM136.509559 586.588789c-41.464367 0-75.086116-33.621748-75.086116-75.078952 0-41.467437 33.621748-75.083046 75.086116-75.083046 41.460274 0 75.080999 33.615609 75.080999 75.083046C211.590558 552.966017 177.969832 586.588789 136.509559 586.588789L136.509559 586.588789zM136.509559 286.263769c-41.464367 0-75.086116-33.615609-75.086116-75.079976 0-41.46539 33.621748-75.082022 75.086116-75.082022 41.460274 0 75.080999 33.615609 75.080999 75.082022C211.590558 252.649184 177.969832 286.263769 136.509559 286.263769L136.509559 286.263769zM355.615788 774.286682l566.082756 0c20.756743 0 37.546128 16.791431 37.546128 37.541011s-16.789385 37.541011-37.546128 37.541011l-566.082756 0c-20.748556 0-37.539988-16.791431-37.539988-37.541011S334.866209 774.286682 355.615788 774.286682L355.615788 774.286682zM355.615788 774.286682" fill="" p-id="4241"></path></svg>