<?xml version="1.0" standalone="no"?><!DOCTYPE svg PUBLIC "-//W3C//DTD SVG 1.1//EN" "http://www.w3.org/Graphics/SVG/1.1/DTD/svg11.dtd"><svg t="1586677636967" class="icon" viewBox="0 0 1024 1024" version="1.1" xmlns="http://www.w3.org/2000/svg" p-id="4697" xmlns:xlink="http://www.w3.org/1999/xlink" width="200" height="200"><defs><style type="text/css"></style></defs><path d="M512 939.2c-22.4 0-44.8-8-64-24-115.2-102.4-312-276.8-331.2-296-64-64-92.8-152-81.6-241.6 16-126.4 120-232 248-248 84.8-11.2 168 16 230.4 72 62.4-56 145.6-81.6 230.4-72 129.6 16 230.4 118.4 248 248 11.2 89.6-17.6 177.6-81.6 241.6-22.4 19.2-219.2 193.6-334.4 296-19.2 16-41.6 24-64 24zM161.6 574.4c12.8 12.8 139.2 124.8 329.6 292.8 12.8 11.2 30.4 11.2 41.6 0 193.6-169.6 316.8-280 329.6-292.8 49.6-49.6 72-118.4 64-188.8-12.8-99.2-92.8-179.2-192-192-75.2-9.6-147.2 17.6-198.4 73.6-12.8 14.4-35.2 14.4-48 0-49.6-57.6-121.6-83.2-198.4-73.6-99.2 12.8-179.2 92.8-192 192-8 70.4 14.4 139.2 64 188.8z m633.6-35.2c-8 0-16-3.2-22.4-9.6-12.8-12.8-12.8-32 0-44.8 17.6-17.6 28.8-41.6 28.8-67.2 0-52.8-43.2-96-96-96-17.6 0-32-14.4-32-32s14.4-32 32-32c88 0 160 72 160 160 0 43.2-16 83.2-46.4 113.6-8 4.8-16 8-24 8z" p-id="4698"></path></svg>