<?xml version="1.0" standalone="no"?><!DOCTYPE svg PUBLIC "-//W3C//DTD SVG 1.1//EN" "http://www.w3.org/Graphics/SVG/1.1/DTD/svg11.dtd"><svg t="1621564308509" class="icon" viewBox="0 0 1024 1024" version="1.1" xmlns="http://www.w3.org/2000/svg" p-id="2124" xmlns:xlink="http://www.w3.org/1999/xlink" width="200" height="200"><defs><style type="text/css"></style></defs><path d="M512 0C229.23008 0 0 229.23008 0 512s229.23008 512 512 512 512-229.23008 512-512S794.76992 0 512 0z m0 998.4C243.36896 998.4 25.6 780.63104 25.6 512 25.6 243.3664 243.36896 25.6 512 25.6s486.4 217.7664 486.4 486.4c0 268.63104-217.76896 486.4-486.4 486.4z" fill="" p-id="2125"></path><path d="M687.00672 534.57664c0.94464-7.37024 1.6512-14.74304 1.6512-22.57408 0-7.83872-0.704-15.2064-1.6512-22.58176l49.67936-38.01088c4.47488-3.456 5.64992-9.68192 2.82624-14.74816l-47.09888-79.7184c-2.82624-5.07136-9.1776-6.90944-14.3616-5.07136l-58.62912 23.04512c-12.24192-9.21344-25.4336-16.82176-39.79008-22.58176l-8.9472-61.06112c-0.704-5.5296-5.65248-9.67424-11.54304-9.67424h-94.18496c-5.88032 0-10.82624 4.14464-11.54048 9.67424l-8.9472 61.06112c-14.36416 5.76-27.5456 13.5936-39.79008 22.58176l-58.62656-23.04512c-5.41952-2.07104-11.54048 0-14.36416 5.07136l-47.09888 79.7184c-3.05408 5.06624-1.64608 11.29216 2.82624 14.74816l49.67936 38.01088c-0.94464 7.37536-1.64864 14.976-1.64864 22.58176 0 7.60064 0.70912 15.20384 1.64864 22.57408l-49.67936 38.01088c-4.47232 3.46368-5.65248 9.6768-2.82624 14.75328l47.09888 79.72096c2.82624 5.06624 9.1776 6.90944 14.36416 5.06624l58.62656-23.04768c12.24448 9.22368 25.43616 16.82176 39.79008 22.58176l8.9472 61.06112c0.71424 5.5296 5.66016 9.67936 11.54048 9.67936h94.18496c5.89056 0 10.8288-4.14976 11.54304-9.67936l8.9472-61.06112c14.36416-5.76 27.54816-13.5936 39.79008-22.58176l58.62912 23.04768c5.41696 2.07616 11.53024 0 14.3616-5.06624l47.09888-79.72096c2.82368-5.06624 1.64864-11.2896-2.82624-14.75328l-49.67936-38.01088z m-174.95296 58.05312c-45.44 0-82.40896-36.1728-82.40896-80.63488s36.96896-80.64512 82.40896-80.64512c45.45024 0 82.41664 36.17536 82.41664 80.64512s-36.9664 80.63488-82.41664 80.63488z" fill="" p-id="2126"></path></svg>