<?xml version="1.0" standalone="no"?><!DOCTYPE svg PUBLIC "-//W3C//DTD SVG 1.1//EN" "http://www.w3.org/Graphics/SVG/1.1/DTD/svg11.dtd"><svg t="1621564418142" class="icon" viewBox="0 0 1024 1024" version="1.1" xmlns="http://www.w3.org/2000/svg" p-id="5964" xmlns:xlink="http://www.w3.org/1999/xlink" width="200" height="200"><defs><style type="text/css"></style></defs><path d="M512 97.28c-228.93056 0-414.72 185.79456-414.72 414.72s185.78944 414.72 414.72 414.72c228.92032 0 414.72-185.79456 414.72-414.72s-185.79968-414.72-414.72-414.72z m194.91328 394.80832h-175.01184V317.0816a794.03008 794.03008 0 0 1 155.9296 19.07712 797.58336 797.58336 0 0 1 19.08224 155.9296z m-175.00672 39.81824h175.01184c-1.24416 55.15264-8.2944 108.24704-19.91168 159.25248-49.7664 10.7776-101.6064 16.9984-155.10016 18.24256v-177.49504z m355.82464-39.81824H748.8c-1.23904-49.35168-6.6304-97.8688-16.17408-144.32256a710.72768 710.72768 0 0 1 140.18048 57.64608c8.2944 27.78624 13.26592 56.81664 14.9248 86.67648z m-36.91008-143.488c-40.64256-19.07712-83.76832-34.42176-128.9728-46.44864-12.032-45.20448-27.37152-88.33024-46.44864-128.5632 76.71808 36.49536 138.51648 98.70336 175.42144 175.01184z m-232.2432-197.40672c23.63904 43.13088 42.71616 90.40896 57.64608 140.17536-46.44864-9.53856-94.55616-14.92992-144.32256-15.75936V136.6784a354.13504 354.13504 0 0 1 86.67648 14.5152z m-126.4896-14.92992c0 0.41472 0 0.41472 0 0v138.9312a860.55936 860.55936 0 0 0-148.05504 16.5888 756.45952 756.45952 0 0 1 53.49376-138.51648c30.2848-9.12384 62.21312-15.34464 94.56128-17.00352z m-148.46976 39.3984c-17.41824 39.81312-31.92832 82.52928-43.13088 126.90432-44.78976 12.02688-87.0912 27.37152-127.31904 46.03392 36.08064-75.06432 96.62976-136.02816 170.44992-172.93824zM151.18848 405.41696c43.13088-23.22432 89.57952-42.71616 139.35104-57.23136-8.70912 46.44864-14.10048 94.55616-15.34976 143.90272H136.25856c1.664-29.85984 6.64064-58.89024 14.92992-86.67136z m-14.92992 126.4896h138.9312c1.24928 51.01056 6.64064 100.36736 15.75936 147.64032-48.93696-13.68576-94.97088-31.51872-137.68704-53.49888-9.12384-29.86496-15.33952-61.37856-17.00352-94.14144z m39.40352 148.46976c39.3984 17.41312 81.69984 31.92832 125.24544 42.72128 11.19744 43.9552 25.2928 85.84192 42.71616 125.24032a374.02624 374.02624 0 0 1-167.9616-167.9616z m316.42624 207.36a370.4064 370.4064 0 0 1-94.14144-17.00352c-21.98016-42.71616-39.81312-88.75008-53.49888-137.68704 47.27808 9.12384 97.04448 14.92992 147.64032 15.75424v138.93632z m0-178.74432c-54.73792-1.24416-107.8272-7.87968-158.41792-18.6624-11.20256-50.60096-17.41824-103.68-18.66752-158.42304h177.08544v177.08544zM315.00288 492.08832c1.24416-53.49888 7.46496-105.74848 18.24256-155.10016A792.66304 792.66304 0 0 1 492.0832 317.0816v175.01184H315.00288z m216.90368 395.648V748.8c49.34656-1.23904 97.4592-6.2208 143.90272-14.9248a727.81312 727.81312 0 0 1-57.23136 139.34592 398.52032 398.52032 0 0 1-86.67136 14.5152z m143.90272-36.91008c18.66752-40.22784 34.00704-82.52928 46.03392-127.31904a830.26944 830.26944 0 0 0 126.8992-43.13088c-37.3248 73.82016-98.28352 134.36928-172.93312 170.44992z m194.9184-224.78336c-42.72128 21.98016-89.1648 39.81312-138.51648 53.49888a785.64864 785.64864 0 0 0 16.58368-148.05504h138.9312c-1.65376 33.18272-7.45472 64.69632-16.9984 94.55616z" fill="" p-id="5965"></path></svg>