<?xml version="1.0" standalone="no"?><!DOCTYPE svg PUBLIC "-//W3C//DTD SVG 1.1//EN" "http://www.w3.org/Graphics/SVG/1.1/DTD/svg11.dtd"><svg t="1583502509745" class="icon" viewBox="0 0 1024 1024" version="1.1" xmlns="http://www.w3.org/2000/svg" p-id="4157" xmlns:xlink="http://www.w3.org/1999/xlink" width="200" height="200"><defs><style type="text/css"></style></defs><path d="M814.427402 126.716007 205.803761 126.716007c-15.118326 0-27.375487 12.257162-27.375487 27.375487l0 717.047026c0 15.118326 12.257162 27.376511 27.375487 27.376511l608.623641 0c15.118326 0 27.376511-12.258185 27.376511-27.376511L841.803913 154.092517C841.803913 138.973168 829.545728 126.716007 814.427402 126.716007L814.427402 126.716007zM233.175155 181.468005l111.268176 0 0 662.296051L233.175155 843.764056 233.175155 181.468005 233.175155 181.468005zM787.050891 843.764056 399.191236 843.764056 399.191236 181.468005 629.664352 181.468005l0 141.286864 46.210461-54.305837 46.215578 55.189973L722.090391 181.468005l64.959477 0 0 662.300145L787.049868 843.764056zM787.050891 843.764056" p-id="4158"></path></svg>