<?xml version="1.0" standalone="no"?><!DOCTYPE svg PUBLIC "-//W3C//DTD SVG 1.1//EN" "http://www.w3.org/Graphics/SVG/1.1/DTD/svg11.dtd"><svg t="1621564371477" class="icon" viewBox="0 0 1024 1024" version="1.1" xmlns="http://www.w3.org/2000/svg" p-id="4108" xmlns:xlink="http://www.w3.org/1999/xlink" width="200" height="200"><defs><style type="text/css"></style></defs><path d="M966.428444 359.025778c0-9.102222 0.597333-18.318222-0.597333-27.249778-5.091556-37.404444-31.687111-53.816889-66.133333-39.111111-19.939556 8.504889-38.058667 21.162667-57.201778 31.601778-22.613333 12.316444-37.973333 28.871111-31.829333 56.718222 5.660444 25.628444 24.433778 34.019556 48.611555 34.872889 4.721778 0.142222 9.329778 3.640889 14.08 5.603555v339.057778l-217.514666 110.961778c-71.68-37.575111-138.979556-73.528889-206.904889-108.316445-114.517333-58.595556-75.52-57.998222-186.481778-0.284444-35.100444 18.261333-69.774222 37.262222-115.171556 61.553778 0-104.391111 0.654222-196.892444-0.312889-289.393778-0.426667-40.647111-3.100444-78.279111 45.511112-98.56 24.462222-10.183111 27.904-41.045333 14.705777-60.928-14.392889-21.617778-35.555556-25.144889-57.6-15.616-19.911111 8.590222-37.916444 21.418667-57.315555 31.345778-25.628444 13.056-35.527111 33.194667-35.384889 61.838222 0.711111 143.616-0.312889 287.288889 0.597333 430.876444 0.398222 60.842667 29.070222 76.344889 84.792889 47.160889 59.562667-31.175111 119.210667-62.321778 177.322667-96.056889 24.974222-14.506667 44.487111-14.990222 70.030222-0.768 74.609778 41.500444 151.352889 79.160889 226.218667 120.234667 28.615111 15.672889 52.650667 15.217778 81.408-0.426667a5348.238222 5348.238222 0 0 1 223.118222-114.375111c34.019556-16.469333 47.160889-39.224889 46.677333-77.084444-1.678222-134.570667-0.625778-269.112889-0.625778-403.655111z m-492.487111 262.883555c28.387556 27.050667 46.876444 26.680889 75.605334-0.540444 65.024-61.525333 123.221333-129.194667 159.345777-211.968 16.412444-37.603556 24.405333-78.876444 36.209778-118.499556-4.835556-117.902222-83.569778-211.171556-198.798222-229.973333-109.795556-17.92-217.002667 47.274667-251.648 153.827556-19.399111 59.676444-12.885333 118.499556 10.496 175.616 37.205333 90.908444 98.616889 164.721778 168.789333 231.537777z m44.117334-470.641777c78.08 3.356444 138.979556 72.647111 128.711111 151.125333-10.439111 79.957333-53.276444 145.578667-102.826667 206.478222-17.123556 21.077333-42.353778 19.655111-62.976 2.645333-44.259556-36.494222-104.817778-164.494222-105.130667-222.094222-0.398222-80.298667 62.663111-141.568 142.222223-138.154666z" fill="" p-id="4109"></path></svg>