<?xml version="1.0" encoding="iso-8859-1"?>
<!-- Generator: Adobe Illustrator 19.0.0, SVG Export Plug-In . SVG Version: 6.00 Build 0)  -->
<svg version="1.1" id="Capa_1" xmlns="http://www.w3.org/2000/svg" xmlns:xlink="http://www.w3.org/1999/xlink" x="0px" y="0px"
	 viewBox="0 0 60 60" style="enable-background:new 0 0 60 60;" xml:space="preserve">
<path d="M35,0C23.849,0,14.43,2.588,11.215,6.475C4.669,8.077,0.884,10.775,0.146,13.51C0.062,13.657,0,13.818,0,14v0.5V26v0.5V27
	v11v0.5V39v12c0,0.162,0.043,0.315,0.117,0.451C1.298,56.346,11.864,60,25,60c11.24,0,20.579-2.68,23.786-6.518
	c6.359-1.546,10.366-4.076,11.09-7C59.955,46.34,60,46.175,60,46V34v-0.5V22v-0.5v-12C60,4.895,51.238,0,35,0z M47.805,39.348
	c-0.04,0.099-0.089,0.198-0.143,0.297c-0.067,0.123-0.142,0.246-0.231,0.369c-0.066,0.093-0.141,0.185-0.219,0.277
	c-0.111,0.131-0.229,0.262-0.363,0.392c-0.081,0.079-0.17,0.157-0.26,0.236c-0.164,0.143-0.335,0.285-0.526,0.426
	c-0.082,0.061-0.17,0.12-0.257,0.18c-0.226,0.156-0.462,0.311-0.721,0.463c-0.068,0.041-0.141,0.08-0.212,0.12
	c-0.298,0.168-0.609,0.335-0.945,0.497c-0.043,0.021-0.088,0.041-0.132,0.061c-0.375,0.177-0.767,0.351-1.186,0.519
	c-0.012,0.005-0.024,0.009-0.036,0.014c-2.271,0.907-5.176,1.67-8.561,2.17c-0.017,0.002-0.034,0.004-0.051,0.007
	c-0.658,0.097-1.333,0.183-2.026,0.259c-0.113,0.012-0.232,0.02-0.346,0.032c-0.605,0.063-1.217,0.121-1.847,0.167
	c-0.288,0.021-0.59,0.031-0.883,0.049c-0.474,0.028-0.943,0.059-1.429,0.076C26.637,45.984,25.827,46,25,46
	s-1.637-0.016-2.432-0.044c-0.486-0.017-0.955-0.049-1.429-0.076c-0.293-0.017-0.595-0.028-0.883-0.049
	c-0.63-0.046-1.242-0.104-1.847-0.167c-0.114-0.012-0.233-0.02-0.346-0.032c-0.693-0.076-1.368-0.163-2.026-0.259
	c-0.017-0.002-0.034-0.004-0.051-0.007c-3.385-0.5-6.29-1.263-8.561-2.17c-0.012-0.004-0.024-0.009-0.036-0.014
	c-0.419-0.168-0.812-0.342-1.186-0.519c-0.043-0.021-0.089-0.041-0.132-0.061c-0.336-0.162-0.647-0.328-0.945-0.497
	c-0.07-0.04-0.144-0.079-0.212-0.12c-0.259-0.152-0.495-0.307-0.721-0.463c-0.086-0.06-0.175-0.119-0.257-0.18
	c-0.191-0.141-0.362-0.283-0.526-0.426c-0.089-0.078-0.179-0.156-0.26-0.236c-0.134-0.13-0.252-0.26-0.363-0.392
	c-0.078-0.092-0.153-0.184-0.219-0.277c-0.088-0.123-0.163-0.246-0.231-0.369c-0.054-0.099-0.102-0.198-0.143-0.297
	c-0.049-0.121-0.088-0.242-0.116-0.363C2.041,38.823,2,38.661,2,38.5c0-0.113,0.013-0.226,0.031-0.338
	C2.056,38.011,2.042,37.86,2,37.717v-7.424c0.028,0.026,0.063,0.051,0.092,0.077c0.218,0.192,0.44,0.383,0.69,0.567
	C6.549,33.786,14.082,36,25,36c10.872,0,18.386-2.196,22.169-5.028c0.302-0.22,0.574-0.447,0.83-0.678L48,30.293v7.424
	c-0.042,0.143-0.056,0.294-0.031,0.445C47.987,38.274,48,38.387,48,38.5c0,0.161-0.041,0.323-0.079,0.485
	C47.892,39.106,47.854,39.227,47.805,39.348z M2.601,18.797c0.3,0.236,0.624,0.469,0.975,0.696c0.073,0.047,0.155,0.093,0.231,0.14
	c0.294,0.183,0.605,0.362,0.932,0.538c0.121,0.065,0.242,0.129,0.367,0.193c0.365,0.186,0.748,0.367,1.151,0.542
	c0.066,0.029,0.126,0.059,0.193,0.087c0.469,0.199,0.967,0.389,1.485,0.573c0.143,0.051,0.293,0.099,0.44,0.149
	c0.412,0.139,0.838,0.272,1.279,0.401c0.159,0.046,0.315,0.094,0.478,0.138c0.585,0.162,1.189,0.316,1.823,0.458
	c0.087,0.02,0.181,0.036,0.269,0.055c0.559,0.122,1.139,0.235,1.735,0.341c0.202,0.036,0.407,0.07,0.613,0.104
	c0.567,0.093,1.151,0.178,1.75,0.256c0.154,0.02,0.301,0.043,0.457,0.062c0.744,0.09,1.514,0.167,2.305,0.233
	c0.195,0.016,0.398,0.028,0.596,0.042c0.633,0.046,1.28,0.084,1.942,0.114c0.241,0.011,0.481,0.022,0.727,0.031
	C23.212,23.979,24.09,24,25,24s1.788-0.021,2.65-0.05c0.245-0.009,0.485-0.02,0.727-0.031c0.662-0.03,1.309-0.068,1.942-0.114
	c0.198-0.015,0.4-0.026,0.596-0.042c0.791-0.065,1.561-0.143,2.305-0.233c0.156-0.019,0.303-0.042,0.457-0.062
	c0.599-0.078,1.182-0.163,1.75-0.256c0.206-0.034,0.411-0.068,0.613-0.104c0.596-0.106,1.176-0.219,1.735-0.341
	c0.088-0.019,0.182-0.036,0.269-0.055c0.634-0.142,1.238-0.297,1.823-0.458c0.163-0.045,0.319-0.092,0.478-0.138
	c0.441-0.129,0.867-0.262,1.279-0.401c0.147-0.05,0.297-0.098,0.44-0.149c0.518-0.184,1.017-0.374,1.485-0.573
	c0.067-0.028,0.127-0.058,0.193-0.087c0.403-0.176,0.786-0.356,1.151-0.542c0.125-0.064,0.247-0.128,0.367-0.193
	c0.327-0.175,0.638-0.354,0.932-0.538c0.076-0.047,0.158-0.093,0.231-0.14c0.351-0.227,0.675-0.459,0.975-0.696
	c0.075-0.06,0.142-0.12,0.215-0.18c0.13-0.108,0.267-0.215,0.387-0.324v7.424c-0.042,0.143-0.056,0.294-0.031,0.445
	C47.987,26.274,48,26.387,48,26.5c0,0.161-0.041,0.323-0.079,0.485c-0.028,0.121-0.067,0.241-0.116,0.363
	c-0.04,0.099-0.089,0.198-0.143,0.297c-0.067,0.123-0.142,0.246-0.231,0.369c-0.066,0.093-0.141,0.185-0.219,0.277
	c-0.111,0.131-0.229,0.262-0.363,0.392c-0.081,0.079-0.17,0.157-0.26,0.236c-0.164,0.143-0.335,0.285-0.526,0.426
	c-0.082,0.061-0.17,0.12-0.257,0.18c-0.226,0.156-0.462,0.311-0.721,0.463c-0.068,0.041-0.141,0.08-0.212,0.12
	c-0.298,0.168-0.609,0.335-0.945,0.497c-0.043,0.021-0.088,0.041-0.132,0.061c-0.375,0.177-0.767,0.351-1.186,0.519
	c-0.012,0.005-0.024,0.009-0.036,0.014c-2.271,0.907-5.176,1.67-8.561,2.17c-0.017,0.002-0.034,0.004-0.051,0.007
	c-0.658,0.097-1.333,0.183-2.026,0.259c-0.113,0.012-0.232,0.02-0.346,0.032c-0.605,0.063-1.217,0.121-1.847,0.167
	c-0.288,0.021-0.59,0.031-0.883,0.049c-0.474,0.028-0.943,0.059-1.429,0.076C26.637,33.984,25.827,34,25,34
	s-1.637-0.016-2.432-0.044c-0.486-0.017-0.955-0.049-1.429-0.076c-0.293-0.017-0.595-0.028-0.883-0.049
	c-0.63-0.046-1.242-0.104-1.847-0.167c-0.114-0.012-0.233-0.02-0.346-0.032c-0.693-0.076-1.368-0.163-2.026-0.259
	c-0.017-0.002-0.034-0.004-0.051-0.007c-3.385-0.5-6.29-1.263-8.561-2.17c-0.012-0.004-0.024-0.009-0.036-0.014
	c-0.419-0.168-0.812-0.342-1.186-0.519c-0.043-0.021-0.089-0.041-0.132-0.061c-0.336-0.162-0.647-0.328-0.945-0.497
	c-0.07-0.04-0.144-0.079-0.212-0.12c-0.259-0.152-0.495-0.307-0.721-0.463c-0.086-0.06-0.175-0.119-0.257-0.18
	c-0.191-0.141-0.362-0.283-0.526-0.426c-0.089-0.078-0.179-0.156-0.26-0.236c-0.134-0.13-0.252-0.26-0.363-0.392
	c-0.078-0.092-0.153-0.184-0.219-0.277c-0.088-0.123-0.163-0.246-0.231-0.369c-0.054-0.099-0.102-0.198-0.143-0.297
	c-0.049-0.121-0.088-0.242-0.116-0.363C2.041,26.823,2,26.661,2,26.5c0-0.113,0.013-0.226,0.031-0.338
	C2.056,26.011,2.042,25.86,2,25.717v-7.424c0.12,0.109,0.257,0.216,0.387,0.324C2.459,18.677,2.526,18.737,2.601,18.797z M50,39.09
	V39v-0.5V38v-8.828c0.043-0.012,0.083-0.025,0.126-0.037c0.4-0.112,0.79-0.227,1.168-0.346c0.004-0.001,0.009-0.003,0.013-0.004
	c2.961-0.936,5.22-2.099,6.693-3.427V33.5c0,0.116-0.015,0.232-0.035,0.349c-0.016,0.096-0.043,0.192-0.072,0.288
	c-0.009,0.028-0.015,0.056-0.025,0.085c-0.036,0.105-0.081,0.21-0.133,0.315c-0.006,0.013-0.013,0.026-0.019,0.039
	c-0.828,1.615-3.465,3.202-7.27,4.379C50.299,39,50.151,39.046,50,39.09z M58,13.347V21.5c0,0.116-0.015,0.232-0.035,0.349
	c-0.016,0.096-0.043,0.192-0.072,0.288c-0.009,0.028-0.015,0.056-0.025,0.085c-0.036,0.105-0.081,0.21-0.133,0.315
	c-0.006,0.013-0.013,0.026-0.019,0.039c-0.828,1.615-3.465,3.202-7.27,4.379C50.299,27,50.151,27.046,50,27.09V27v-0.5V26v-8.828
	c0.084-0.023,0.161-0.049,0.244-0.072c0.23-0.065,0.454-0.133,0.677-0.2c0.189-0.057,0.378-0.115,0.561-0.174
	c0.228-0.074,0.448-0.15,0.667-0.227c0.166-0.058,0.334-0.115,0.495-0.174c0.231-0.085,0.452-0.174,0.673-0.262
	c0.137-0.055,0.279-0.108,0.412-0.164c0.256-0.108,0.5-0.219,0.742-0.332c0.087-0.04,0.179-0.079,0.263-0.119
	c0.324-0.156,0.635-0.316,0.931-0.479c0.031-0.017,0.057-0.035,0.088-0.052c0.261-0.146,0.513-0.295,0.751-0.447
	c0.084-0.054,0.159-0.109,0.24-0.163c0.176-0.117,0.35-0.235,0.512-0.356c0.089-0.066,0.169-0.134,0.253-0.201
	c0.141-0.112,0.282-0.224,0.411-0.338C57.946,13.389,57.976,13.369,58,13.347z M35,2c13.555,0,23,3.952,23,7.5
	c0,0.133-0.014,0.266-0.04,0.399c-0.008,0.044-0.025,0.087-0.036,0.131c-0.023,0.09-0.045,0.179-0.079,0.269
	c-0.02,0.052-0.047,0.104-0.07,0.156c-0.037,0.081-0.073,0.162-0.119,0.243c-0.031,0.055-0.068,0.11-0.103,0.165
	c-0.05,0.078-0.1,0.156-0.157,0.233c-0.042,0.056-0.089,0.112-0.135,0.167c-0.063,0.076-0.127,0.152-0.197,0.227
	c-0.052,0.056-0.108,0.112-0.164,0.168c-0.075,0.074-0.153,0.149-0.236,0.223c-0.062,0.055-0.126,0.111-0.192,0.166
	c-0.088,0.073-0.18,0.146-0.275,0.219c-0.071,0.054-0.143,0.109-0.218,0.163c-0.101,0.073-0.208,0.145-0.316,0.217
	c-0.079,0.053-0.158,0.105-0.241,0.158c-0.116,0.073-0.237,0.145-0.36,0.216c-0.085,0.05-0.169,0.1-0.258,0.149
	c-0.132,0.073-0.272,0.146-0.412,0.219c-0.089,0.046-0.175,0.093-0.267,0.138c-0.153,0.076-0.315,0.15-0.476,0.225
	c-0.088,0.04-0.171,0.081-0.261,0.121c-0.213,0.094-0.434,0.187-0.659,0.278c-0.045,0.018-0.086,0.037-0.131,0.055
	c-0.274,0.109-0.558,0.216-0.85,0.321c-0.081,0.029-0.168,0.057-0.25,0.085c-0.214,0.074-0.428,0.148-0.651,0.22
	c-0.116,0.038-0.238,0.073-0.357,0.11c-0.161,0.05-0.322,0.099-0.487,0.147V14.5V14c0-0.113-0.027-0.22-0.065-0.322
	c-0.014-0.04-0.027-0.078-0.046-0.115c-0.002-0.004-0.003-0.01-0.006-0.014c-0.284-1.177-1.122-2.279-2.396-3.279
	c-0.007-0.006-0.013-0.012-0.021-0.017c-0.182-0.143-0.385-0.28-0.585-0.418c-3.547-2.511-10.075-4.479-19.335-4.786
	C26.71,5.018,25.861,5,25,5c-0.854,0-1.703,0.017-2.545,0.048c-2.498,0.083-4.787,0.291-6.884,0.594C19.445,3.612,26.273,2,35,2z
	 M13.493,8.061c0.252-0.05,0.512-0.094,0.769-0.141c0.332-0.061,0.666-0.12,1.009-0.175c0.299-0.048,0.601-0.093,0.905-0.137
	c0.337-0.048,0.681-0.093,1.028-0.136c0.294-0.037,0.587-0.075,0.885-0.107c0.599-0.065,1.209-0.122,1.833-0.17
	c0.237-0.019,0.478-0.031,0.717-0.047c0.484-0.032,0.972-0.06,1.47-0.081c0.235-0.01,0.47-0.02,0.707-0.028
	C23.534,7.017,24.258,7,25,7c0.827,0,1.637,0.016,2.433,0.044c0.48,0.017,0.943,0.048,1.411,0.075c0.3,0.017,0.607,0.029,0.902,0.05
	c0.621,0.045,1.224,0.103,1.821,0.164c0.123,0.012,0.252,0.021,0.374,0.035c0.677,0.074,1.336,0.159,1.98,0.253
	c0.033,0.005,0.068,0.009,0.1,0.013c3.369,0.498,6.261,1.256,8.526,2.157c0.025,0.01,0.052,0.02,0.077,0.03
	c0.406,0.163,0.786,0.332,1.149,0.503c0.056,0.026,0.114,0.052,0.169,0.078c0.325,0.157,0.625,0.318,0.914,0.48
	c0.08,0.045,0.164,0.09,0.241,0.136c0.249,0.147,0.477,0.296,0.696,0.447c0.095,0.065,0.191,0.131,0.28,0.197
	c0.184,0.136,0.349,0.273,0.507,0.411c0.095,0.083,0.19,0.166,0.276,0.25c0.129,0.126,0.244,0.252,0.351,0.379
	c0.081,0.096,0.16,0.192,0.228,0.289c0.086,0.119,0.159,0.239,0.225,0.359c0.056,0.102,0.105,0.203,0.146,0.304
	c0.048,0.119,0.086,0.239,0.114,0.358C47.959,14.176,48,14.338,48,14.5c0,3.548-9.445,7.5-23,7.5S2,18.048,2,14.5
	C2,12.08,6.399,9.475,13.493,8.061z M25,58c-13.036,0-22.401-3.703-22.968-7.162C2.024,50.793,2.014,50.749,2,50.707v-8.414
	c0.028,0.026,0.063,0.051,0.092,0.077c0.218,0.192,0.44,0.383,0.69,0.567C6.549,45.786,14.082,48,25,48
	c10.872,0,18.386-2.196,22.169-5.028c0.302-0.22,0.574-0.447,0.83-0.678L48,42.293v8.41c-0.014,0.044-0.024,0.089-0.032,0.135
	c-0.033,0.204-0.103,0.409-0.196,0.613c-0.036,0.079-0.092,0.158-0.137,0.237C45.826,54.877,36.971,58,25,58z M57.968,45.838
	c-0.317,1.941-3.314,3.891-7.972,5.255C49.999,51.063,50,51.031,50,51v-9.828c0.043-0.012,0.083-0.025,0.126-0.037
	c0.4-0.112,0.79-0.227,1.168-0.346c0.004-0.001,0.009-0.003,0.013-0.004c2.961-0.936,5.22-2.099,6.693-3.427v8.346
	C57.986,45.747,57.976,45.792,57.968,45.838z"/>
<g>
</g>
<g>
</g>
<g>
</g>
<g>
</g>
<g>
</g>
<g>
</g>
<g>
</g>
<g>
</g>
<g>
</g>
<g>
</g>
<g>
</g>
<g>
</g>
<g>
</g>
<g>
</g>
<g>
</g>
</svg>
