<?xml version="1.0" standalone="no"?><!DOCTYPE svg PUBLIC "-//W3C//DTD SVG 1.1//EN" "http://www.w3.org/Graphics/SVG/1.1/DTD/svg11.dtd"><svg t="1621564321483" class="icon" viewBox="0 0 1024 1024" version="1.1" xmlns="http://www.w3.org/2000/svg" p-id="2521" xmlns:xlink="http://www.w3.org/1999/xlink" width="200" height="200"><defs><style type="text/css"></style></defs><path d="M909.966 546.631c0.086-0.116 0.165-0.235 0.25-0.351 0.47-0.649 0.931-1.304 1.374-1.972 0.141-0.212 0.273-0.429 0.41-0.641 0.375-0.582 0.747-1.167 1.102-1.763 0.156-0.261 0.302-0.527 0.453-0.79 0.322-0.561 0.642-1.124 0.948-1.697 0.148-0.278 0.288-0.561 0.431-0.841 0.292-0.571 0.579-1.142 0.852-1.723 0.128-0.274 0.248-0.548 0.371-0.823 0.27-0.6 0.536-1.201 0.787-1.809 0.104-0.254 0.202-0.51 0.301-0.764 0.25-0.635 0.495-1.273 0.725-1.919 0.083-0.233 0.159-0.469 0.237-0.704 0.227-0.668 0.447-1.338 0.651-2.017 0.065-0.221 0.125-0.441 0.187-0.661 0.197-0.69 0.39-1.382 0.563-2.082 0.054-0.224 0.102-0.448 0.156-0.672 0.163-0.693 0.319-1.387 0.457-2.089 0.050-0.254 0.091-0.509 0.136-0.763 0.122-0.669 0.241-1.34 0.341-2.017 0.047-0.322 0.081-0.647 0.123-0.97 0.079-0.61 0.16-1.218 0.22-1.834 0.046-0.467 0.071-0.934 0.106-1.401 0.035-0.479 0.080-0.955 0.103-1.438 0.094-1.924 0.094-3.852 0-5.777-0.024-0.482-0.069-0.959-0.103-1.439-0.035-0.467-0.060-0.934-0.106-1.401-0.059-0.616-0.141-1.225-0.22-1.835-0.042-0.323-0.076-0.647-0.123-0.969-0.099-0.677-0.219-1.349-0.341-2.019-0.046-0.254-0.086-0.509-0.136-0.762-0.138-0.702-0.295-1.397-0.457-2.091-0.052-0.224-0.099-0.448-0.155-0.671-0.173-0.701-0.364-1.394-0.563-2.085-0.063-0.22-0.122-0.44-0.187-0.66-0.204-0.678-0.424-1.35-0.651-2.018-0.080-0.234-0.155-0.47-0.237-0.704-0.229-0.646-0.474-1.284-0.725-1.919-0.1-0.255-0.196-0.51-0.301-0.763-0.251-0.61-0.517-1.213-0.788-1.812-0.124-0.273-0.243-0.548-0.37-0.821-0.273-0.581-0.561-1.154-0.853-1.725-0.143-0.279-0.281-0.561-0.43-0.839-0.305-0.573-0.624-1.137-0.948-1.698-0.151-0.263-0.298-0.528-0.453-0.789-0.355-0.597-0.727-1.181-1.102-1.763-0.138-0.213-0.27-0.429-0.41-0.641-0.443-0.668-0.904-1.323-1.374-1.972-0.085-0.117-0.165-0.235-0.25-0.351-1.858-2.524-3.915-4.892-6.147-7.085l-233.526-233.524c-22.841-22.841-59.845-22.841-82.688 0s-22.841 59.845 0 82.688l134.081 134.081h-560.533c-32.32 0-58.476 26.182-58.475 58.475s26.154 58.475 58.475 58.475h560.533l-134.081 134.079c-22.841 22.841-22.841 59.845 0 82.688 11.421 11.421 26.381 17.131 41.344 17.131s29.922-5.711 41.344-17.131l233.527-233.527c2.232-2.192 4.287-4.56 6.145-7.084z" p-id="2522"></path></svg>