<?xml version="1.0" standalone="no"?><!DOCTYPE svg PUBLIC "-//W3C//DTD SVG 1.1//EN" "http://www.w3.org/Graphics/SVG/1.1/DTD/svg11.dtd"><svg t="1621564381213" class="icon" viewBox="0 0 1024 1024" version="1.1" xmlns="http://www.w3.org/2000/svg" p-id="4505" xmlns:xlink="http://www.w3.org/1999/xlink" width="200" height="200"><defs><style type="text/css"></style></defs><path d="M924.444444 135.111111h-824.888888a56.888889 56.888889 0 0 0-56.888889 56.888889v640a56.888889 56.888889 0 0 0 56.888889 56.888889h824.888888a56.888889 56.888889 0 0 0 56.888889-56.888889V192a56.888889 56.888889 0 0 0-56.888889-56.888889z m-28.444444 625.777778c0 23.552-20.081778 42.666667-44.828444 42.666667H172.828444c-24.775111 0-44.828444-19.114667-44.828444-42.666667V263.111111c0-23.552 20.081778-42.666667 44.828444-42.666667h678.343112c24.775111 0 44.828444 19.114667 44.828444 42.666667v497.777778z" fill="" p-id="4506"></path><path d="M827.562667 330.183111c-12.145778-12.117333-29.411556-14.506667-38.627556-5.290667L485.632 628.224l-118.926222-118.954667c-3.754667-3.726222-8.931556-5.091556-14.421334-5.176889-0.768-0.113778-1.479111-0.056889-2.247111-0.113777-0.739556 0.056889-1.479111 0-2.247111 0.113777-5.518222 0.056889-10.695111 1.422222-14.449778 5.176889l-142.136888 142.136889c-9.216 9.216-6.855111 26.510222 5.262222 38.627556 12.117333 12.117333 29.411556 14.449778 38.627555 5.262222l114.944-114.972444 114.944 114.972444c0.597333 0.597333 1.507556 0.739556 2.190223 1.251556 11.776 9.472 26.766222 11.150222 35.185777 2.759111L832.853333 368.810667c9.187556-9.216 6.826667-26.510222-5.290666-38.627556z" fill="" p-id="4507"></path></svg>