<?xml version="1.0" encoding="iso-8859-1"?>
<!-- Generator: Adobe Illustrator 19.0.0, SVG Export Plug-In . SVG Version: 6.00 Build 0)  -->
<svg version="1.1" id="Capa_1" xmlns="http://www.w3.org/2000/svg" xmlns:xlink="http://www.w3.org/1999/xlink" x="0px" y="0px"
	 viewBox="0 0 60 60" style="enable-background:new 0 0 60 60;" xml:space="preserve">
<g>
	<path d="M52.29,44.29C52.109,44.479,52,44.74,52,45s0.1,0.52,0.29,0.71C52.479,45.89,52.74,46,53,46s0.52-0.11,0.71-0.29
		C53.89,45.52,54,45.26,54,45s-0.11-0.521-0.29-0.71C53.34,43.93,52.67,43.92,52.29,44.29z"/>
	<path d="M23.638,42.263L20,40.405v-0.387c1.628-0.889,2.773-2.354,3.412-4.365C24.381,35.14,25,34.14,25,33.018v-1
		c0-0.927-0.431-1.786-1.151-2.35c-0.624-3.78-3.262-5.696-7.849-5.696c-0.217,0-0.429,0.009-0.636,0.025
		c-0.865,0.067-2.129-0.003-3.224-0.741c-0.41-0.276-0.719-0.544-0.917-0.796c-0.336-0.428-0.901-0.577-1.401-0.369
		c-0.501,0.206-0.796,0.708-0.733,1.248c0.042,0.372,0.105,0.808,0.2,1.285c0.193,0.975,0.193,0.975-0.078,1.558
		c-0.102,0.221-0.228,0.49-0.376,0.853c-0.331,0.81-0.566,1.697-0.701,2.646C7.424,30.245,7,31.1,7,32.018v1
		c0,1.122,0.619,2.122,1.588,2.636c0.639,2.012,1.784,3.477,3.412,4.365v0.376l-3.77,1.857C6.854,43.003,6,44.443,6,46.011v1.324
		c0,0.803,0,2.683,10,2.683s10-1.88,10-2.683v-1.244C26,44.461,25.095,42.994,23.638,42.263z M24,47.109
		c-0.623,0.379-3.161,0.908-8,0.908s-7.377-0.529-8-0.908v-1.099c0-0.835,0.456-1.603,1.151-1.983l3.858-1.9
		C13.611,41.833,14,41.21,14,40.539v-1.804l-0.604-0.261c-1.517-0.652-2.503-1.899-3.015-3.814l-0.143-0.532l-0.526-0.164
		C9.293,33.834,9,33.444,9,33.018v-1c0-0.363,0.207-0.699,0.541-0.877l0.469-0.25l0.055-0.528c0.099-0.939,0.308-1.804,0.622-2.57
		c0.133-0.325,0.246-0.568,0.338-0.767c0.339-0.729,0.462-1.105,0.377-1.876c1.175,0.672,2.587,0.959,4.122,0.842
		c0.155-0.013,0.314-0.02,0.477-0.02c3.744,0,5.572,1.356,5.929,4.399l0.062,0.523l0.466,0.245C22.792,31.316,23,31.652,23,32.018v1
		c0,0.427-0.293,0.816-0.712,0.946l-0.526,0.164l-0.143,0.532c-0.512,1.915-1.498,3.162-3.015,3.814L18,38.735v1.812
		c0,0.666,0.369,1.27,0.964,1.575l3.768,1.924l0.007,0.004C23.517,44.439,24,45.222,24,46.091V47.109z"/>
	<path d="M31,29.018h10c0.553,0,1-0.447,1-1s-0.447-1-1-1H31c-0.553,0-1,0.447-1,1S30.447,29.018,31,29.018z"/>
	<path d="M32,44.018h-1c-0.553,0-1,0.447-1,1s0.447,1,1,1h1c0.553,0,1-0.447,1-1S32.553,44.018,32,44.018z"/>
	<path d="M38,44.018h-2c-0.553,0-1,0.447-1,1s0.447,1,1,1h2c0.553,0,1-0.447,1-1S38.553,44.018,38,44.018z"/>
	<path d="M43,44.018h-1c-0.553,0-1,0.447-1,1s0.447,1,1,1h1c0.553,0,1-0.447,1-1S43.553,44.018,43,44.018z"/>
	<path d="M49,44.018h-2c-0.553,0-1,0.447-1,1s0.447,1,1,1h2c0.553,0,1-0.447,1-1S49.553,44.018,49,44.018z"/>
	<path d="M53,33.018H31c-0.553,0-1,0.447-1,1s0.447,1,1,1h22c0.553,0,1-0.447,1-1S53.553,33.018,53,33.018z"/>
	<path d="M53,39.018H31c-0.553,0-1,0.447-1,1s0.447,1,1,1h22c0.553,0,1-0.447,1-1S53.553,39.018,53,39.018z"/>
	<path d="M55.322,14H37V6.313C37,5.037,35.963,4,34.687,4h-9.375C24.037,4,23,5.037,23,6.313V14H4.678C2.099,14,0,16.099,0,18.678
		v32.645C0,53.901,2.099,56,4.678,56h50.645C57.901,56,60,53.901,60,51.322V18.678C60,16.099,57.901,14,55.322,14z M25,6.313
		C25,6.141,25.141,6,25.312,6h9.375C34.859,6,35,6.141,35,6.313V14v5.688C35,19.859,34.859,20,34.687,20h-9.375
		C25.141,20,25,19.859,25,19.688V14V6.313z M58,51.322C58,52.799,56.799,54,55.322,54H4.678C3.201,54,2,52.799,2,51.322V18.678
		C2,17.201,3.201,16,4.678,16H23v3.688C23,20.963,24.037,22,25.312,22h9.375C35.963,22,37,20.963,37,19.688V16h18.322
		C56.799,16,58,17.201,58,18.678V51.322z"/>
	<path d="M30,15c2.206,0,4-1.794,4-4s-1.794-4-4-4s-4,1.794-4,4S27.794,15,30,15z M30,9c1.103,0,2,0.897,2,2s-0.897,2-2,2
		s-2-0.897-2-2S28.897,9,30,9z"/>
</g>
<g>
</g>
<g>
</g>
<g>
</g>
<g>
</g>
<g>
</g>
<g>
</g>
<g>
</g>
<g>
</g>
<g>
</g>
<g>
</g>
<g>
</g>
<g>
</g>
<g>
</g>
<g>
</g>
<g>
</g>
</svg>
