<?xml version="1.0" standalone="no"?><!DOCTYPE svg PUBLIC "-//W3C//DTD SVG 1.1//EN" "http://www.w3.org/Graphics/SVG/1.1/DTD/svg11.dtd"><svg t="1621564301465" class="icon" viewBox="0 0 1024 1024" version="1.1" xmlns="http://www.w3.org/2000/svg" p-id="1858" xmlns:xlink="http://www.w3.org/1999/xlink" width="200" height="200"><defs><style type="text/css"></style></defs><path d="M512 0C229.23008 0 0 229.23008 0 512s229.23008 512 512 512 512-229.23008 512-512S794.76992 0 512 0z m0 998.4C243.36896 998.4 25.6 780.63104 25.6 512 25.6 243.3664 243.36896 25.6 512 25.6s486.4 217.7664 486.4 486.4c0 268.63104-217.76896 486.4-486.4 486.4z" fill="" p-id="1859"></path><path d="M328.18944 353.26976c6.144-7.51104 12.29056-14.50752 18.43456-20.992 4.7744-5.80352 9.80992-11.264 15.09888-16.384s9.3056-8.87296 12.03456-11.26144a82.85184 82.85184 0 0 1 12.02944-8.192c4.26496-2.39104 9.984-3.584 17.15456-3.584h221.17888c4.43904 0 9.55904 0.93696 15.36 2.81856 5.80608 1.87392 11.43552 5.71392 16.90112 11.52 2.72896 3.41248 6.3104 7.68 10.74944 12.8 4.43392 5.12 8.704 10.07104 12.8 14.848a436.80256 436.80256 0 0 1 14.336 18.432H328.18944z m415.74656 153.088c0 10.92352-3.584 20.13696-10.74944 27.648-7.17056 7.51104-17.41056 11.264-30.72 11.264H324.096c-12.96896 0-23.296-3.75552-30.976-11.264s-11.52-16.72448-11.52-27.648v-73.21856c0-10.92096 3.40992-20.31104 10.24-28.16 6.82496-7.84896 17.92-11.776 33.28-11.776h376.82944c15.70048 0 26.624 3.92448 32.77056 11.776s9.216 17.23904 9.216 28.16v73.21856z m-193.02656-36.864c0-4.43648-1.11104-7.59296-3.32544-9.472-2.21952-1.87392-5.2096-2.816-8.96-2.816h-51.71456c-3.75552 0-6.82496 1.19552-9.216 3.584s-3.584 5.28896-3.584 8.70144c0.34048 4.43648 1.62048 7.68 3.84 9.728 2.21952 2.05056 5.20448 3.072 8.96 3.072H538.624c7.85152 0.00256 11.94496-4.26496 12.28544-12.79744zM742.4 691.6992c0 10.92608-4.1856 20.31104-12.544 28.16-8.36608 7.84896-19.03104 11.60448-32 11.264H322.56c-10.92608 0-20.736-3.84-29.44-11.52s-13.056-18.34496-13.056-32v-68.608c0-11.264 3.4944-20.73856 10.496-28.41856 6.99392-7.68 18.176-11.52 33.536-11.52h375.808c14.336 0 25.00096 3.84 32 11.52 6.99392 7.68 10.496 16.98304 10.496 27.904v73.21856z m-193.024-36.34944c0-3.41504-1.11104-6.31552-3.33056-8.704-2.2144-2.39104-5.20448-3.584-8.96-3.584H485.376c-3.75552 0-6.82496 1.19552-9.216 3.584s-3.584 5.28896-3.584 8.704c0 3.41248 1.19552 6.31552 3.584 8.70144 2.39104 2.39104 5.46048 3.584 9.216 3.584h51.70944c3.75552 0 6.7456-1.19552 8.96-3.584 2.21952-2.38592 3.33056-5.28896 3.33056-8.70144z" fill="" p-id="1860"></path></svg>