<?xml version="1.0" standalone="no"?><!DOCTYPE svg PUBLIC "-//W3C//DTD SVG 1.1//EN" "http://www.w3.org/Graphics/SVG/1.1/DTD/svg11.dtd"><svg t="1621564363678" class="icon" viewBox="0 0 1024 1024" version="1.1" xmlns="http://www.w3.org/2000/svg" p-id="3842" xmlns:xlink="http://www.w3.org/1999/xlink" width="200" height="200"><defs><style type="text/css"></style></defs><path d="M510.236444 74.666667h-398.222222a56.888889 56.888889 0 0 0-56.888889 56.888889v398.222222a56.888889 56.888889 0 0 0 56.888889 56.888889h398.222222a56.888889 56.888889 0 0 0 56.888889-56.888889v-398.222222a56.888889 56.888889 0 0 0-56.888889-56.888889z m-28.444444 384a42.666667 42.666667 0 0 1-42.666667 42.666666h-256a42.666667 42.666667 0 0 1-42.666666-42.666666v-256a42.666667 42.666667 0 0 1 42.666666-42.666667h256a42.666667 42.666667 0 0 1 42.666667 42.666667v256z" fill="" p-id="3843"></path><path d="M911.985778 295.111111h-540.444445a56.888889 56.888889 0 0 0-56.888889 56.888889v540.444444a56.888889 56.888889 0 0 0 56.888889 56.888889h540.444445a56.888889 56.888889 0 0 0 56.888889-56.888889v-540.444444a56.888889 56.888889 0 0 0-56.888889-56.888889z m-28.444445 526.222222a42.666667 42.666667 0 0 1-42.666666 42.666667h-398.222223a42.666667 42.666667 0 0 1-42.666666-42.666667v-398.222222a42.666667 42.666667 0 0 1 42.666666-42.666667h398.222223a42.666667 42.666667 0 0 1 42.666666 42.666667v398.222222z" fill="" p-id="3844"></path></svg>