<?xml version="1.0" standalone="no"?><!DOCTYPE svg PUBLIC "-//W3C//DTD SVG 1.1//EN" "http://www.w3.org/Graphics/SVG/1.1/DTD/svg11.dtd"><svg t="1621564420566" class="icon" viewBox="0 0 1024 1024" version="1.1" xmlns="http://www.w3.org/2000/svg" p-id="6096" xmlns:xlink="http://www.w3.org/1999/xlink" width="200" height="200"><defs><style type="text/css"></style></defs><path d="M556.022691 902.358109c-18.134109 9.951418-31.315782 14.382545-42.710109 14.382546-11.478109 0-24.278109-4.384582-42.710109-14.717673-307.628218-171.985455-306.613527-266.202764-302.834037-616.727273 0.381673-34.853236 0.781964-72.043055 0.902982-111.885964a2498.327273 2498.327273 0 0 1 151.766109-40.112872c58.051491-13.498182 122.619345-22.2208 191.878982-25.963055 131.760873 14.792145 232.829673 34.304 342.304582 66.2528 0.195491 45.028073 0.781964 86.621091 1.284654 125.151418 4.756945 352.321164 5.920582 436.047127-299.883054 603.620073m359.861527-604.457891c-0.586473-44.730182-1.256727-93.519127-1.359127-147.102254a30.263855 30.263855 0 0 0-21.4016-28.997819C770.904436 84.6848 661.792582 62.929455 516.468364 46.722327a32.116364 32.116364 0 0 0-4.822109-0.139636c-73.672145 3.844655-142.522182 13.116509-204.660364 27.5456-62.519855 14.531491-122.135273 30.598982-177.124073 47.737018a30.3104 30.3104 0 0 0-21.150254 28.997818c0 48.2304-0.502691 92.625455-0.9216 133.771637-3.807418 350.021818-5.2224 480.991418 333.786763 670.543127 27.9552 15.629964 49.412655 22.285964 71.735855 22.285964 21.9136 0 43.910982-6.702545 71.289018-21.690182 337.696582-185.111273 336.225745-294.7072 331.282618-657.873455m-192.269963 13.526109L453.129309 586.193455 320.344436 451.341964a39.721891 39.721891 0 0 0-56.580654-0.1024 40.848291 40.848291 0 0 0-0.093091 57.250909l161.121745 163.607272c7.521745 7.614836 17.696582 11.906327 28.336873 11.906328s20.843055-4.291491 28.336873-11.924946l298.821818-303.550836a40.792436 40.792436 0 0 0-0.121018-57.222982 39.619491 39.619491 0 0 0-56.552727 0.121018" fill="" p-id="6097"></path></svg>