<?xml version="1.0" standalone="no"?><!DOCTYPE svg PUBLIC "-//W3C//DTD SVG 1.1//EN" "http://www.w3.org/Graphics/SVG/1.1/DTD/svg11.dtd"><svg t="1621825266194" class="icon" viewBox="0 0 1024 1024" version="1.1" xmlns="http://www.w3.org/2000/svg" p-id="5869" xmlns:xlink="http://www.w3.org/1999/xlink" width="200" height="200"><defs><style type="text/css"></style></defs><path d="M633.314994 432.512191c-26.536785-26.536785-51.197655-43.00603-77.606446-51.795628-19.029128-6.357709-34.174435-21.503015-40.488145-40.488146-8.789597-26.452788-25.256843-51.111659-51.795628-77.606445L237.173137 36.370334c-46.803856-46.803856-128.720105-47.015847-175.735951 0L36.350335 61.457185C12.927408 84.922111 0 116.110682 0 149.431156c0 33.150482 12.927408 64.339053 36.350335 87.76198l226.251638 226.251638c26.536785 26.536785 51.197655 43.00603 77.606445 51.795628 19.029128 6.357709 34.174435 21.503015 40.488146 40.488145 8.789597 26.40879 25.300841 51.111659 52.60559 78.418409 9.941545 9.983543 22.996947 14.933316 36.052349 14.933316 13.013404 0 25.940812-4.949773 35.796361-14.84732l129.060089-129.060089c19.797093-19.757095 19.797093-51.96762-0.895959-72.660672z m-29.182664 42.536051l-129.060089 129.060089c-3.28585 3.199853-8.319619 3.113857-12.287437-0.853961-21.717005-21.717005-34.9424-41.086118-41.556097-61.011205-10.581515-31.700548-35.79636-56.915393-67.494908-67.494909-19.881089-6.613697-39.252202-19.797093-60.92521-41.4701L66.556952 207.028518c-15.401295-15.359297-23.892906-35.838359-23.892906-57.767354 0-21.759003 8.489611-42.238065 23.848908-57.63936L91.601805 66.576951c15.401295-15.401295 35.838359-23.892906 57.767354-23.892906 21.801001 0 42.280064 8.489611 57.63936 23.848908L433.260156 292.78459c21.717005 21.673007 34.856404 41.000122 41.512099 60.92521 10.581515 31.700548 35.79636 56.915393 67.494909 67.494908 19.925087 6.613697 39.252202 19.797093 61.863166 42.408058a8.08363 8.08363 0 0 1 0.002 11.435476z" p-id="5870"></path><path d="M1021.735204 950.41847l-73.554631-147.065264c-10.9215-21.801001-32.852495-35.36838-57.255378-35.36838h-28.798681L612.365953 518.268263c-8.319619-8.319619-21.844999-8.319619-30.164618 0s-8.319619 21.844999 0 30.164618l255.988275 255.988276a21.487016 21.487016 0 0 0 15.103309 6.229715h37.630276c8.149627 0 15.445293 4.521793 19.029128 11.817458l66.684946 133.327894-20.905042 20.905042-133.327894-66.684945a21.191029 21.191029 0 0 1-11.77546-19.071127v-37.630276c0-5.67374-2.261896-11.093492-6.271713-15.103309l-255.988276-255.988275c-8.319619-8.319619-21.844999-8.319619-30.164618 0s-8.319619 21.844999 0 30.164618L767.964827 862.146513v28.798681c0 24.360884 13.567379 46.333878 35.36838 57.21338l147.065264 73.554631a21.327023 21.327023 0 0 0 24.660871-4.009817l42.664045-42.664046a21.297025 21.297025 0 0 0 4.011817-24.620872z" p-id="5871"></path><path d="M1023.56912 200.458819c-0.42598-7.337664-5.46175-14.377342-11.945453-17.919179a21.275026 21.275026 0 0 0-21.205029 0.42598l-116.730654 70.012793c-35.454376-18.34516-58.621315-52.775583-62.503137-91.941789l130.384028-78.204418a21.417019 21.417019 0 0 0 10.325527-16.80923 21.423019 21.423019 0 0 0-7.893638-18.089171C905.900509 17.171214 860.718578 0.617972 813.274751 0.019999c-52.093614-0.42598-107.771064 23.80691-148.515198 67.23892-47.613819 50.727677-69.628811 101.029373-67.366914 153.678962 1.237943 28.884677-11.689465 59.091294-35.496374 82.898203l-61.395188 61.395188c-8.319619 8.361617-8.319619 21.844999 0 30.164619a107.295086 107.295086 0 0 0 41.726089 25.812817c19.925087 6.613697 39.252202 19.797093 61.863166 42.408058 2.687877 2.687877 2.687877 8.745599 0 11.433476l-32.552509 32.552509c-8.319619 8.319619-8.319619 21.844999 0 30.164619l21.333023 21.333023c4.181808 4.13781 9.641558 6.229715 15.103308 6.229714s10.9215-2.089904 15.103309-6.271712l138.831641-138.831642c17.279209 4.393799 33.022488 6.441705 48.723768 6.441705 58.493321 0 115.06673-24.404882 155.214891-67.02693 40.740134-43.178022 61.219196-99.707433 57.721357-159.182709z m-88.741936 129.956048c-32.596507 34.558417-76.710487 53.587546-124.196312 53.587545-15.103308 0-30.590599-2.559883-48.851762-8.105628a21.235027 21.235027 0 0 0-21.247027 5.333755l-91.643803 91.643803c0.937957-14.293345-4.181808-29.012671-15.529288-40.360151-26.536785-26.536785-51.197655-43.00603-77.650444-51.795628a57.029388 57.029388 0 0 1-7.337664-2.943865l43.773995-43.815994c32.254523-32.212525 49.747722-74.108606 47.955804-114.896737-1.791918-41.128116 15.957269-80.12433 55.847442-122.660382 32.510511-34.686411 76.540494-54.823489 116.772652-53.71554 27.432744 0.341984 54.013526 7.465658 78.246416 20.777048l-112.634841 67.580905A21.337023 21.337023 0 0 0 767.964827 149.34716c0 60.755217 33.748454 115.364716 88.101964 142.627467l9.001588 4.479795c6.569699 3.241852 14.293345 2.943865 20.52106-0.809963l93.733707-56.231424c-5.117766 33.960445-20.391066 65.403004-44.495962 91.001832zM559.120392 592.930843l-21.333023-21.333023c-8.319619-8.319619-21.844999-8.319619-30.164619 0l-32.552509 32.552509c-3.28585 3.199853-8.319619 3.113857-12.287437-0.85396-21.759003-21.759003-34.9424-41.128116-41.556097-61.011206a106.667115 106.667115 0 0 0-25.812817-41.726089c-8.361617-8.319619-21.844999-8.319619-30.164619 0l-64.339053 64.339053c-21.077035 21.033037-52.3916 30.548601-87.589988 32.424515C95.697617 597.326642 0 693.022259 0 810.648872c0 7.465658 0.937957 14.63333 1.877914 21.801001l0.681969 5.03377a21.411019 21.411019 0 0 0 11.861456 16.469245 21.323023 21.323023 0 0 0 20.30907-0.895959l136.825734-82.08624c35.454376 18.34516 58.621315 52.733585 62.503137 91.941789l-142.713464 85.628078c-6.143719 3.71183-10.069539 10.281529-10.325527 17.449201a21.303024 21.303024 0 0 0 8.917592 18.217166c36.436331 25.940812 78.930385 39.678183 122.960368 39.764178h0.297986c52.947575 0 106.491123-24.872861 146.895273-68.178877 46.973849-50.387692 68.732852-100.305406 66.470955-152.61101-1.237943-28.926675 11.733463-59.261286 35.624368-83.154192l96.933561-96.93356c8.319619-8.317619 8.319619-21.843 0-30.162619z m-127.182175 96.891563c-32.296521 32.296521-49.831718 74.278598-48.083798 115.152726 1.74992 40.872128-15.743279 79.526358-55.037479 121.722425-32.340519 34.728409-74.45059 54.611499-115.620705 54.611498h-0.21399c-23.764912-0.041998-47.015847-5.119766-68.604858-14.805322l122.576386-73.554631a21.337023 21.337023 0 0 0 10.367525-18.303161c0-60.755217-33.790452-115.408714-88.101964-142.627468l-9.001588-4.479795a21.39502 21.39502 0 0 0-20.52106 0.809963l-116.560662 69.970795c6.313711-88.357953 80.252324-158.328748 170.702182-158.328748h0.767965c46.119888 0 87.461994-15.957269 116.474665-44.925942l46.675862-46.675863c1.151947 2.389891 2.089904 4.821779 2.943866 7.337664 8.789597 26.40879 25.300841 51.111659 52.60559 78.418409 10.793506 10.837504 25.128849 15.913271 39.508191 14.805322l-40.876128 40.872128z" p-id="5872"></path></svg>