<?xml version="1.0" standalone="no"?><!DOCTYPE svg PUBLIC "-//W3C//DTD SVG 1.1//EN" "http://www.w3.org/Graphics/SVG/1.1/DTD/svg11.dtd"><svg t="1621564405031" class="icon" viewBox="0 0 1024 1024" version="1.1" xmlns="http://www.w3.org/2000/svg" p-id="5567" xmlns:xlink="http://www.w3.org/1999/xlink" width="200" height="200"><defs><style type="text/css"></style></defs><path d="M900.20352 351.27296c-42.15808-102.19008-124.87168-185.12896-227.1232-227.1232-102.89152-42.26048-219.53024-42.41408-322.36032 0-101.4016 41.84064-184.69376 124.29824-227.1232 227.1232-41.8304 101.4016-41.99424 219.20768 0 321.44896 42.26048 102.90176 125.7216 185.28768 227.1232 227.12832 102.83008 42.4192 219.47392 42.26048 322.36032 0 102.25664-41.99936 185.12896-124.88192 227.1232-227.12832 42.2656-102.89152 42.09664-219.392 0-321.44896z m-42.73152 304.22016c-37.73952 90.3936-112.19968 164.85888-202.59328 202.60864-90.7264 37.88288-194.53952 36.82304-287.55456 0-185.21088-73.33888-278.49728-304.35328-202.5984-489.22112 76.32896-185.9072 306.33472-282.90048 490.14784-202.60352 89.76896 39.2192 164.52608 110.46912 202.59328 202.60352 37.5552 90.86464 37.888 195.89632 0.00512 286.61248z" fill="" p-id="5568"></path><path d="M693.22752 540.84096h-174.0032V281.67168c0-33.88928-53.11488-33.88928-53.11488 0v288.49152c0 10.2912 4.11648 17.83808 12.3392 22.65088a29.70624 29.70624 0 0 0 18.80064 6.65088h195.97824c15.56992 0 29.30688-11.90912 29.30688-29.30176 0-15.58528-13.73184-29.32224-29.30688-29.32224z" fill="" p-id="5569"></path></svg>