<?xml version="1.0" standalone="no"?><!DOCTYPE svg PUBLIC "-//W3C//DTD SVG 1.1//EN" "http://www.w3.org/Graphics/SVG/1.1/DTD/svg11.dtd"><svg t="1621564344677" class="icon" viewBox="0 0 1024 1024" version="1.1" xmlns="http://www.w3.org/2000/svg" p-id="3182" xmlns:xlink="http://www.w3.org/1999/xlink" width="200" height="200"><defs><style type="text/css"></style></defs><path d="M903.111111 938.296889a391.651556 391.651556 0 0 0-233.102222-346.510222 296.448 296.448 0 0 0 139.264-251.875556C809.244444 175.644444 676.266667 42.666667 512 42.666667S214.755556 175.644444 214.755556 339.911111c0 106.382222 55.523556 199.480889 140.003555 251.875556-134.513778 59.448889-229.176889 191.630222-233.870222 346.510222v3.925333c0 21.902222 17.208889 39.111111 39.111111 39.111111S199.111111 964.124444 199.111111 942.222222c3.896889-168.96 142.364444-305.066667 312.888889-305.066666s308.963556 136.106667 312.888889 305.066666c0 21.902222 17.208889 39.111111 39.111111 39.111111s39.111111-17.208889 39.111111-39.111111v-3.925333zM512 558.933333a218.652444 218.652444 0 0 1-219.022222-219.022222c0-121.258667 97.792-219.022222 219.022222-219.022222s218.993778 97.792 218.993778 219.022222c0 121.230222-97.735111 219.022222-218.993778 219.022222z" fill="" p-id="3183"></path></svg>