<?xml version="1.0" encoding="iso-8859-1"?>
<!-- Generator: Adobe Illustrator 19.0.0, SVG Export Plug-In . SVG Version: 6.00 Build 0)  -->
<svg version="1.1" id="Capa_1" xmlns="http://www.w3.org/2000/svg" xmlns:xlink="http://www.w3.org/1999/xlink" x="0px" y="0px"
	 viewBox="0 0 512.004 512.004" style="enable-background:new 0 0 512.004 512.004;" xml:space="preserve">
<g transform="translate(-1)">
	<g>
		<g>
			<path d="M495.332,256.003c-5.912-82.504-54.11-156.07-127.39-194.437V25.6c-0.015-14.132-11.468-25.585-25.6-25.6h-204.8
				c-14.132,0.015-25.585,11.468-25.6,25.6v57.801C30.535,145.57-2.159,252.731,30.681,349.755
				C63.52,446.779,154.578,512.054,257.009,512h1.082l0.027,0.004l0.025-0.004h0.017c49.534-0.106,97.789-15.739,137.975-44.7
				c0.293-0.208,0.572-0.436,0.833-0.683C464.028,418.193,501.244,338.507,495.332,256.003z M47.337,345.713
				c-29.69-85.778-4.094-180.99,64.605-240.318v261.538c0.015,14.132,11.468,25.585,25.6,25.6h106.407
				c-5.514,33.915-4.587,68.566,2.731,102.138C156.005,490.507,77.027,431.491,47.337,345.713z M248.817,332.8h-17.408v-17.067
				c0.001-2.263-0.898-4.434-2.499-6.035c-1.6-1.6-3.771-2.499-6.035-2.499c-2.263-0.001-4.434,0.898-6.035,2.499
				c-1.6,1.6-2.499,3.771-2.499,6.035V332.8h-17.067v-8.533c0-4.713-3.82-8.533-8.533-8.533s-8.533,3.82-8.533,8.533v8.533h-17.067
				v-42.667h85.675V332.8z M248.817,273.067h-85.675c-9.421,0.011-17.056,7.646-17.067,17.067V332.8
				c0.011,9.421,7.646,17.056,17.067,17.067h85.675v16.054c-0.371,1.577-1.12,4.946-2.006,9.546H137.542
				c-4.711-0.005-8.529-3.822-8.533-8.533V25.6c0.005-4.711,3.822-8.529,8.533-8.533h204.8c4.711,0.005,8.529,3.822,8.533,8.533
				v334.996c-0.703,6.417-5.067,11.844-11.183,13.908c-0.422,0.096-0.837,0.221-1.242,0.375c-0.108,0.038-1,0.2-1.108,0.242
				c-1.13,0.226-2.28,0.342-3.433,0.346c-4.438-0.08-8.673-1.875-11.817-5.008c-3.214-3.188-5.018-7.531-5.009-12.058v-85.333
				c0-18.851-15.282-34.133-34.133-34.133S248.817,254.215,248.817,273.067z M383.831,455.031
				c-35.106,24.591-76.642,38.369-119.485,39.634c-11.303-39.267-6.233-84.823-1.995-109.241c1.7-10.071,3.267-16.358,3.275-16.421
				c0.173-0.677,0.26-1.373,0.258-2.071v-93.867c0-9.426,7.641-17.067,17.067-17.067s17.067,7.641,17.067,17.067v8.533v76.8
				c-0.021,9.057,3.583,17.746,10.008,24.129c6.333,6.289,14.859,9.875,23.784,10.004c2.095,0.018,4.186-0.174,6.242-0.575
				c1.295-0.16,2.569-0.457,3.8-0.887c0.117-0.029,0.233-0.058,0.35-0.096c14.379-4.294,24.194-17.569,24.083-32.575V250.592
				c15.383,25.304,37.35,66.592,41.967,102.487c0.874,7.529-0.143,15.158-2.958,22.196L383.831,455.031z M407.106,436.33
				l16.328-55.576c3.697-9.484,4.986-19.737,3.75-29.842c-7.222-56.093-51.147-120.728-59.242-132.246V80.962
				c68.831,39.429,111.189,112.781,110.933,192.104C478.793,335.121,452.772,394.315,407.106,436.33z"/>
			<path d="M239.942,34.133c-14.138,0-25.6,11.461-25.6,25.6c0.015,14.132,11.468,25.585,25.6,25.6c14.138,0,25.6-11.461,25.6-25.6
				S254.08,34.133,239.942,34.133z M239.942,68.267c-4.713,0-8.533-3.82-8.533-8.533c0.005-4.711,3.822-8.529,8.533-8.533
				c4.713,0,8.533,3.82,8.533,8.533S244.655,68.267,239.942,68.267z"/>
			<path d="M212.942,128.068c-3.019,0.509-5.534,2.596-6.591,5.469l-17.608,46.958l-17.608-46.958
				c-1.057-2.873-3.572-4.96-6.591-5.469c-3.019-0.509-6.079,0.638-8.02,3.006c-1.94,2.368-2.464,5.594-1.372,8.454l25.6,68.267
				c1.25,3.331,4.434,5.537,7.991,5.537s6.742-2.206,7.991-5.537l25.6-68.267c1.092-2.86,0.569-6.086-1.372-8.454
				C219.021,128.707,215.961,127.559,212.942,128.068z"/>
			<path d="M248.475,128c-2.263-0.001-4.434,0.898-6.035,2.499c-1.6,1.6-2.499,3.771-2.499,6.035V204.8
				c0,4.713,3.82,8.533,8.533,8.533s8.533-3.821,8.533-8.533v-68.267c0.001-2.263-0.898-4.434-2.499-6.035
				C252.909,128.898,250.739,127.999,248.475,128z"/>
			<path d="M282.609,213.333c2.263,0.001,4.434-0.898,6.035-2.499c1.6-1.6,2.499-3.771,2.499-6.035v-25.6h8.533
				c14.138,0,25.6-11.461,25.6-25.6c0-14.139-11.462-25.6-25.6-25.6h-17.067c-2.263-0.001-4.434,0.898-6.035,2.499
				s-2.499,3.771-2.499,6.035V204.8c-0.001,2.263,0.898,4.434,2.499,6.035C278.174,212.435,280.345,213.334,282.609,213.333z
				 M291.142,145.067h8.533c4.713,0,8.533,3.821,8.533,8.533c0,4.713-3.82,8.533-8.533,8.533h-8.533V145.067z"/>
		</g>
	</g>
</g>
<g>
</g>
<g>
</g>
<g>
</g>
<g>
</g>
<g>
</g>
<g>
</g>
<g>
</g>
<g>
</g>
<g>
</g>
<g>
</g>
<g>
</g>
<g>
</g>
<g>
</g>
<g>
</g>
<g>
</g>
</svg>
