<?xml version="1.0" standalone="no"?><!DOCTYPE svg PUBLIC "-//W3C//DTD SVG 1.1//EN" "http://www.w3.org/Graphics/SVG/1.1/DTD/svg11.dtd"><svg t="1621564327052" class="icon" viewBox="0 0 1024 1024" version="1.1" xmlns="http://www.w3.org/2000/svg" p-id="2653" xmlns:xlink="http://www.w3.org/1999/xlink" width="200" height="200"><defs><style type="text/css"></style></defs><path d="M781.368889 985.230222c-102.371556 0-185.628444-83.342222-185.628445-185.742222 0-5.831111 0.284444-11.662222 0.824889-17.464889l-235.036444-127.772444a186.083556 186.083556 0 0 1-118.954667 43.491555C140.174222 697.742222 56.888889 614.4 56.888889 512s83.285333-185.685333 185.685333-185.685333c28.017778 0 56.206222 6.513778 81.436445 18.858666a186.538667 186.538667 0 0 1 50.602666 36.408889l225.251556-119.068444a184.661333 184.661333 0 0 1-0.142222-76.145778c17.948444-85.504 94.321778-147.569778 181.646222-147.569778a185.6 185.6 0 0 1 91.448889 24.064 54.215111 54.215111 0 0 1 20.508444 73.614222 54.471111 54.471111 0 0 1-47.672889 27.392c-9.244444 0-18.289778-2.360889-26.140444-6.798222a79.047111 79.047111 0 0 0-22.272-8.362666 77.710222 77.710222 0 0 0-91.562667 59.932444 76.856889 76.856889 0 0 0 11.036445 58.168889 76.572444 76.572444 0 0 0 64.796444 35.128889 77.539556 77.539556 0 0 0 77.283556-75.463111 54.499556 54.499556 0 0 1 54.158222-52.992c15.473778 0.284444 29.240889 6.257778 39.253333 16.782222 9.784889 10.183111 15.132444 23.864889 14.904889 38.4a189.724444 189.724444 0 0 1-3.982222 34.048c-17.976889 85.418667-94.378667 147.484444-181.646222 147.484444a186.140444 186.140444 0 0 1-129.422223-52.536889l-227.072 120.035556a184.803556 184.803556 0 0 1-3.953777 85.703111l217.258666 118.158222a184.917333 184.917333 0 0 1 52.992-44.316444 185.770667 185.770667 0 0 1 90.055111-23.324445c102.371556 0 185.656889 83.256889 185.656889 185.571556a184.547556 184.547556 0 0 1-54.414222 131.299556 184.32 184.32 0 0 1-131.214222 54.442666z m0-263.082666a77.454222 77.454222 0 0 0 0 154.88 77.539556 77.539556 0 0 0 77.425778-77.511112c0-20.593778-8.049778-39.992889-22.670223-54.641777a77.084444 77.084444 0 0 0-54.755555-22.727111zM242.545778 434.631111A77.482667 77.482667 0 0 0 165.12 512c0 42.695111 34.730667 77.425778 77.425778 77.425778s77.425778-34.730667 77.425778-77.425778c0-42.666667-34.730667-77.368889-77.425778-77.368889z" fill="" p-id="2654"></path></svg>